/* XPM */
static char *eca1a83148e64416fe4f0b873bd2d461Z5cM6xidzWjnevI9[] = {
/* columns rows colors chars-per-pixel */
"16 18 10 1 ",
"  c None",
". c #21110D",
"X c #342319",
"o c #171C31",
"O c #242A3D",
"+ c #503625",
"@ c #755338",
"# c #414B66",
"$ c #677598",
"% c #B6BEC8",
/* pixels */
"                ",
"                ",
"  ............  ",
" .+$$++++++$$+. ",
" .@%%@@@@@@%%@. ",
" .@%%@@@@@@%%@. ",
" .@%%@@@@@@%%@. ",
" .@%%@@@@@@%%@. ",
" .+$$++++++$$+. ",
" .$$$$%%%%$$$$. ",
" .X##X#OO#X##X. ",
"o.X$$+$OO$+$$X.o",
"o.X$$+$$$$+$$X.o",
"o.X$$++++++$$X.o",
"oo.$$++++++$$.oo",
" oooooooooooooo ",
"   oooooooooo   ",
"                "
};
