/* XPM */
static char *dfbe22aa6247469ae19af5e9f67d9273ZY04owAfOLjduRe9[] = {
/* columns rows colors chars-per-pixel */
"50 45 12 1 ",
"  c None",
". c black",
"X c #21110D",
"o c #171C31",
"O c #402717",
"+ c #573A23",
"@ c #AC7B5D",
"# c #1D438A",
"$ c #2C65B5",
"% c #787E97",
"& c #A4A8B5",
"* c #C1AC8F",
/* pixels */
"                                                  ",
"                                                  ",
"                                                  ",
"                                                  ",
"                                                  ",
"                                                  ",
"                                                  ",
"                                                  ",
"                                                  ",
"                                                  ",
"                                                  ",
"                                                  ",
"                                                  ",
"                                                  ",
"                   .... ..                        ",
"                   .++O.+...                      ",
"                   ..++O+O++.                     ",
"                  .O+++++++++.                    ",
"                 .O+++++++++++.                   ",
"                 .O++O+++OO+++.                   ",
"                 .OOOO+++O@@O+O.                  ",
"                 .O+OO++O@@@@OO.                  ",
"                 .O++@O+@X**X.O.                  ",
"                 .OO+@@O*X**X..                   ",
"                  .OO@@******.                    ",
"                   .OO@@****@.                    ",
"                    .OO@@@@@.                     ",
"                    .OO+%%%O.                     ",
"                    .O++%%&O.                     ",
"                   .**++%&&O@.                    ",
"                   .**++$$$O@.                    ",
"                   o.#$$#$$..o                    ",
"                  oo.O+..O+.ooo                   ",
"                  ooooooooooooo                   ",
"                   ooooooooooo                    ",
"                                                  ",
"                                                  ",
"                                                  ",
"                                                  ",
"                                                  ",
"                                                  ",
"                                                  ",
"                                                  ",
"                                                  ",
"                                                  "
};
