/* XPM */
static char *_713b0324f6c470cb5e62b15e68fadafm58MwfTbm4fiyHeJ[] = {
/* columns rows colors chars-per-pixel */
"69 53 6 1 ",
"  c None",
". c black",
"X c #242A3D",
"o c #414B66",
"O c #677598",
"+ c #8F9AB0",
/* pixels */
"                                                                     ",
"                                                                     ",
"                                                                     ",
"                                                                     ",
"                                                                     ",
"                                                                     ",
"                                                                     ",
"     ....  ......    ....  ... .... ...  ..... .... ...  ........    ",
"    .OOOo..ooOOOO.  .OOOo..ooo.OOOo.OOo..oOOOo.OOOo.OOo..OOooOOOO.   ",
"   .OOOOO.ooOOOOOO..OOOOO.oOOOoOOOOoOOO.oOOOOOoOOOOoOOO.OOOoOOOOOO.  ",
"   .OOOOOoOOOOOOOO..OOOOOoOOOOOOOOOoOOOoOOOOOOOOOOOoOOOoOOOOOOOOOO.  ",
"   .oOOOOXOOOOOOOO..oOOOOXOOOOO+OOOXoOOXOOOOOOO+OOOXoOOXOOoOOOOOOO.  ",
"   .OOOOOoOO++++OO..OOOOOoOO++Oo++oOOOooOO++++Oo++oOOOOOooOO++++OO.  ",
"   .+++OOoO+OOOO+O..+++OOoO+OO+Xoo++OOOoO+OOOO+Xoo++++++OoO+OOOO+O.  ",
"   .OOOOXXoOOOOOOX..OOOOXXoOOOOXXXOOOOXXoOOOOOOXXXOOOOOOXXoOOOOOOX.  ",
"   .OooooXOOOOoooO..OooooXOOOooOXOOOoooXOOOOoooOXOOOOOoooXOOOOoooO.  ",
"   .oooooXOoOooooo..oooooXOoooooXOOooooXOoooooooXOOOoooooXOOOooooo.  ",
"   .oooooXoOoooooo..oooooXoOooooXooOoooXoOooooooXooooOoooXoOoooooo.  ",
"   .ooooXXXoooooo...ooooXXXooooXXXooooXXXooooooXXXooooooXXXoooooo..  ",
"   ..XXXXXXXXOOOO....XXXXXXXOOOoXXXXXXXXXXXOOOOoXXXXXXXXXXXXXOOOO..  ",
"   ..OOOXXXOOOooOO...OOOXXXOOooOXoOOOOOXXXOOOooOXoOOOOOOOXXXOOooOO.  ",
"   .OOOOOXOooooooO..OOOOOXOooOoooOOOOOOOXOoooOoooOOOOOOOOOXOoooooO.  ",
"   .OoooOXoooooooo..OoooOXooooooOOOooooOXoooooooOOOooooooOXooooooo.  ",
"   .oooooXoooooooo..oooooXoooooXOoooooooXooooooXOoooooooooXooooooo.  ",
"   .ooooXXXXooooo...ooooXXXXXXXXXooooooXXXXXXXXXXooooooooXXXooooo..  ",
"   ..OOOOOOOXXoOOO...OOOOOOOXXoOOOOoXXOOOOOOXXoOOOOoXXOOOOOOXXoOOO.  ",
"   .OOOooooOOXOOOo..OOOooooOOXOOOooOXOOOoooOOXOOOooOXOOOoooOOXOOOo.  ",
"   .OoooooOooXOooo..OoooooOooXOoooooXOooooOooXOoooooXOooooOooXOooo.  ",
"   .oooooooooXXooo..oooooooooXXooooXXooooooooXXooooXXooooooooXXooo.  ",
"   ..oooooooXXXXX....oooooooXXXXXXXXXXooooooXXXXXXXXXXooooooXXXXX..  ",
"   .OOOOXXoOOOOOOX..OOOOXXoOOOOXXXOOOOXXoOOOOOOXXXOOOOOOXXoOOOOOOX.  ",
"   .OooooXOOOOoooO..OooooXOOOooOXOOOoooXOOOOoooOXOOOOOoooXOOOOoooO.  ",
"   .oooooXOOOooooo..oooooXOoooooXOOooooXOoooooooXOOOoooooXOOOooooo.  ",
"   .oooooXoOoooooo..oooooXoOooooXooOoooXoOooooooXooooOoooXoOoooooo.  ",
"   .ooooXXXoooooo...ooooXXXooooXXXooooXXXooooooXXXooooooXXXoooooo..  ",
"   ..XXXXXXXXOOOO....XXXXXXXOOOoXXXXXXXXXXXOOOOoXXXXXXXXXXXXXOOOO..  ",
"   ..OOOXXXXOOooOO...OOOXXXOOooOXoOOOOOXXXOOOooOXoOOOOOOOXXXOOooOO.  ",
"   .OOOOOXOOoooooO..OOOOOXOooOoooOOOOOOOXOoooooooOOOOOOOOOXOoooooO.  ",
"   .OoooOXoooooooo..OoooOXooooooOOOooooOXoooooooOOOooooooOXooooooo.  ",
"   .oooooXoooooooo..oooooXoooooXOoooooooXooooooXOoooooooooXooooooo.  ",
"   .ooooXXXXooooo...ooooXXXXXXXXXooooooXXXXXXXXXXooooooooXXXooooo..  ",
"   ..OOOOOOOXXoOOO...OOOOOOOXXoOOOOoXXOOOOOOXXoOOOOoXXOOOOOOXXoOOO.  ",
"   .OOOooooOOXOOOo..OOOooooOOXOOOooOXOOOoooOOXOOOooOXOOOoooOOXOOOo.  ",
"   .OoooooOooXOooo..OoooooOooXOoooooXOooooOooXOoooooXOooooOooXOooo.  ",
"   .oooooooooXXooo..oooooooooXXooooXXooooooooXXooooXXooooooooXXooo.  ",
"    ..............  ..............................................   ",
"                                                                     ",
"                                                                     ",
"                                                                     ",
"                                                                     ",
"                                                                     ",
"                                                                     ",
"                                                                     "
};
