/* XPM */
static char *d0ac756511a74409ea8ae691c0eead0bLcrjBvUMteoxIyRD[] = {
/* columns rows colors chars-per-pixel */
"64 64 242 2 ",
"   c #000000",
".  c #2E1610",
"X  c #392609",
"o  c #431C1B",
"O  c #4C3809",
"+  c #53300B",
"@  c #462815",
"#  c #572E1A",
"$  c #592F18",
"%  c #573517",
"&  c #653B15",
"*  c #633E19",
"=  c #522C27",
"-  c #653A28",
";  c #643233",
":  c #5A4405",
">  c #5D4115",
",  c #674B08",
"<  c #654A0B",
"1  c #734F00",
"2  c #6B5305",
"3  c #765602",
"4  c #67411C",
"5  c #694819",
"6  c #70461C",
"7  c #764A1F",
"8  c #795915",
"9  c #577316",
"0  c #7B6303",
"q  c #667B1E",
"w  c #6A4627",
"e  c #744526",
"r  c #7D4F22",
"t  c #7A492C",
"y  c #7F5123",
"u  c #735030",
"i  c #5A7420",
"p  c #6A762A",
"a  c #74715B",
"s  c #815700",
"d  c #87521E",
"f  c #88531F",
"g  c #876701",
"h  c #8C660B",
"j  c #8A7502",
"k  c #977600",
"l  c #A67D00",
"z  c #824E2F",
"x  c #815324",
"c  c #8A5929",
"v  c #925D2B",
"b  c #895539",
"n  c #935C3C",
"m  c #91602F",
"M  c #88772D",
"N  c #926131",
"B  c #996633",
"V  c #9D6935",
"C  c #9C643B",
"Z  c #A36B3A",
"A  c #A46C3A",
"S  c #A87037",
"D  c #AC743B",
"F  c #BC773F",
"G  c #877B4B",
"H  c #B37643",
"J  c #5F831D",
"K  c #65871A",
"L  c #6B8B1D",
"P  c #708C18",
"I  c #6D931B",
"U  c #749615",
"Y  c #74941E",
"T  c #79951D",
"R  c #769A1C",
"E  c #7B9B1D",
"W  c #7BA218",
"Q  c #7CA31E",
"!  c #678527",
"~  c #6B8525",
"^  c #6C8C23",
"/  c #738D24",
"(  c #778928",
")  c #728C2A",
"_  c #6E9424",
"`  c #749324",
"'  c #7B9524",
"]  c #769B23",
"[  c #7C9C24",
"{  c #75942B",
"}  c #7B942C",
"|  c #759B2A",
" . c #7D9C2B",
".. c #6B8131",
"X. c #788932",
"o. c #749432",
"O. c #7C9432",
"+. c #7C9B32",
"@. c #789836",
"#. c #7DA224",
"$. c #7DA825",
"%. c #7DA22B",
"&. c #7DA132",
"*. c #7EA931",
"=. c #988400",
"-. c #A48400",
";. c #AB8700",
":. c #AC8C00",
">. c #B48A00",
",. c #AB9500",
"<. c #B79600",
"1. c #B79800",
"2. c #BA9900",
"3. c #A48C1B",
"4. c #81A41D",
"5. c #86AB1D",
"6. c #87B11C",
"7. c #BAA400",
"8. c #928D2D",
"9. c #849826",
"0. c #839D25",
"q. c #83952C",
"w. c #839C2B",
"e. c #8A9E2C",
"r. c #848C37",
"t. c #839532",
"y. c #839C32",
"u. c #8B9D33",
"i. c #889739",
"p. c #849B3B",
"a. c #929D38",
"s. c #AA922A",
"d. c #83A325",
"f. c #89A424",
"g. c #84AB24",
"h. c #8BAB25",
"j. c #83A32B",
"k. c #8BA42C",
"l. c #85AA2B",
"z. c #8CAB2C",
"x. c #92A82A",
"c. c #92AC2C",
"v. c #8CB325",
"b. c #87B329",
"n. c #8CB32C",
"m. c #96B729",
"M. c #93B32C",
"N. c #85A432",
"B. c #8BA433",
"V. c #84AA32",
"C. c #8CAA32",
"Z. c #85A439",
"A. c #8AA63A",
"S. c #8CAB3A",
"D. c #93A633",
"F. c #93AB33",
"G. c #9BAC34",
"H. c #93AD3B",
"J. c #99AA3B",
"K. c #8BB332",
"L. c #8BB339",
"P. c #94B332",
"I. c #99B834",
"U. c #94B13B",
"Y. c #9AB23B",
"T. c #A2B22D",
"R. c #A2AA3D",
"E. c #A3B539",
"W. c #C28E00",
"Q. c #C69900",
"!. c #C9A800",
"~. c #D7A500",
"^. c #D6AC00",
"/. c #DAA900",
"(. c #C8B700",
"). c #DAB500",
"_. c #DCB800",
"`. c #DEB81E",
"'. c #EBB600",
"]. c #E5BB00",
"[. c #F1B700",
"{. c #F2BC00",
"}. c #C3813D",
"|. c #DEBA22",
" X c #99C22B",
".X c #A4C631",
"XX c #EAC500",
"oX c #F4C202",
"OX c #FCC400",
"+X c #F4CB00",
"@X c #FFCC00",
"#X c #FFD300",
"$X c #FFDA00",
"%X c #FBD408",
"&X c #F1CB17",
"*X c #F4D017",
"=X c #F8D219",
"-X c #FFE400",
";X c #FFEB00",
":X c #FFEB0F",
">X c #FFF300",
",X c #FFFB00",
"<X c #FFF60A",
"1X c #FFF51B",
"2X c #93864B",
"3X c #9F8F49",
"4X c #889B43",
"5X c #968A51",
"6X c #A4944D",
"7X c #A4995B",
"8X c #8CA742",
"9X c #94A644",
"0X c #9BB442",
"qX c #AAA950",
"wX c #9E9466",
"eX c #918C75",
"rX c #9E9779",
"tX c #A49A67",
"yX c #A39D76",
"uX c #A9A170",
"iX c #CD8641",
"pX c #C98B48",
"aX c #D1924C",
"sX c #FFDE4A",
"dX c #FFEC4A",
"fX c #FFE75B",
"gX c #FFE958",
"hX c #FFED6E",
"jX c #7C8597",
"kX c #979385",
"lX c #9B9C9C",
"zX c #ABA687",
"xX c #ABA792",
"cX c #B7B6AD",
"vX c #FFF08E",
"bX c #FFFCAC",
"nX c #FFFECA",
"mX c #FFFFD2",
"MX c #FFFEDC",
"NX c #FFFFE7",
"BX c ivory",
"VX c #FFFFFB",
/* pixels */
"V.l.N.w.p.B.i.D.Y.Y.p.@.z.U.u.F.P.l.Y.i.R.B.j.F.k.D.E.H.B.A.9Xp.B.y.H.j.l.z.U.V.y.B.{ S.S.D.Y.j.d.H.A.A.E.C.U.D.I.l.^ p.Y.I.8X&.",
"w.B.S.p.p  .R.R.h.I.t.9.k.m.h.U w.B.' d.r.t.R 0.w.' } e.@.p X.A.y.w.M.[ w.0.h.g.#.9.j.9.g.d.c.h.Y 0.c.P.I.l.F.T U I Y ~ C.b.%.$.",
"k.u.e.X.p 3XH.I.h.q.u.c.f.D.C.e.e.g.4.h.w.X.{  . . .y.a.t.X.j.+.! [ [ C.@._ ) { / B.} ] w.} j.z.0.q.G.c.d.y.` g.[ ^ b.#.j.#.j.F.",
"q.k.M.M.X.r..X X[ ' h.v.[ e.B.j.0.E g.j.w.q.0.B.j.j.z.F.0.j.V.b.w.[ L V.L.+.9X8Xq l. .) F.9.) w.d.( 9X0.#.Q Y M.M.#.l.^ _ M. .~ ",
"( B.U.j.i f.T.T.k.L d.j.w.j.[ / k.T 9.E.D.G.0. .y.k.[ l.E ` i.C.S.i.9.P.S.l.P.0X8Xo.K.@.o.j.( j.9.' w.j. .n.5.[ P.b.d.[ R #.o.' ",
"d.C.q.) w.g.B.F.' ` l.w.[ w.w.` e.l.w.D.B.F. . .q.[ N. .` O.Y.+.N.8X .D.J.#.^ &.Z.o.o.! @.U.B.j.q.H.x.P. .w.F.F.C.S.d.f.k.^ v.v.",
"j.j.C.w.w.' H.l.Y l.w.0.g.p r.I.0.u.w.w.` z.k.+.l.` +.#.| L.K K w.V.l.} &.w.{ %.| i o.! &.L.#.| t.x.w.k.R T y.C.$.C.j.c.c. .l.M.",
"' C.z.l.$.4./ ` #.j.' X.X.e.t.A.B.i.t.F.g.j.F.O.Z.Z.{ ` ` | _ 8X4X` b.| ^ +.%.Q | @.! &.L.| #.C.d.0.E d.d.j.%.*.V.$.F.z.' w.D.k.",
"D./ ] g.5.h.] j.4.`  .t.G 8.`  ./ %.A.j.I.k.t.P.j.o.o.} {  .N.Y.t.) [ l.{ ~ K.*.0.#.! ) V.*.o.+.j.[ k.I.{ @.0XS._ N.P.q.( R.k.P ",
"a./ ] ` w.F..Xm.d.[ j.D.a.a.] } t. .j.l. .j.D.v.Q ~ } N.S.i.B.j.`  .V.#.o.S.u.) _ l.+.J #.K.o.! l.%.| V.o.! V.{ ^ k.z.z.x.D.I.B.",
"q.w./  .M.0.q.z.h.d.q.O.( y.%.} Y.C.m._ K j.m.v.^ X.l.*.N.} X.y.P.y.S.K.^ +.y.) K N.&._ I *.U. .R ] ` V.C.^ &.V.F.k.} k.0.Q j.[ ",
"j.I.{  .[ h.{ cXzXuXtXwXeX%.u.c.z.K.%. .` l.b.C.^ &.%.K j.Z.Z.o.&.S.| &.&.} C.K._ { 8XL.| K.l.! ~ kXyXwXtXeXcXH.H.9XA.H.B.z. .9.",
"b.%.K q ` g.| M Q.^.^.XXk jX| %.w. .j.u.N.j.u.c.g.` } ) A.y.o.@.@.+.J.O.l.I.S.%.L.8XP.j.Z.l.j.o.a ;.)./.).>.eXq.d.#.z.i.Z.O.q j.",
"B.%.%.K j.d.g.s.%XnXNXhXW.@ e 4 * * 4 4 * 4 4 4 4 4 4 4 * - 4 4 4 w * - 4 4 4 * 5 w - - 4 4 4 e % XXvXNXbX].wX/ g.b.R ) ) ~ { C.",
"Z.+._ I j.g.9Xs.=XVXVXbX>.w iX}.}.}.}.}.}.}.F }.}.}.}.}.F }.iXs.}.s.iXF }.}.}.}.}.}.}.s.iXF }.H 5 ^.mXVXVX/.wX[ R ] [ _ ^ | d.y.",
"y.U.] !  .0.q.s.&XhXvXdX<.w pXaXpXpXpXpXpXpXpXpXpXpXpXpXpXpXpXpXpXpXpXpXpXpXpXpXpXpXpXpXpXpXaXH 5 ).fXvXhX~.zX#.` { +.w.j.j.` / ",
"~ J.G.U ' t.j.6XOXOXOX-X<.- pXaXpXpXpXpXpXpXpXpXpXpXpXpXpXpXpXpXpXpXpXpXpXpXpXpXpXpXpXpXpXpXaXH 5 ).#XOX@X~.xX} @.{ z.C.j.j.o.w.",
"q.u.E.M.P e.Y.3XOX@X@X-X<.w H D D D D D D D D D D D D D D D D D D D D D D D D D D D D D D D H A 5 ).$X@X$X~.xXO.%.#.V.z.` `  .u.",
"w.w.D.F.C.F.k.3XOX@X@X-X<.w C m N N N v N m m m m m m b m V B V N m m m m m m m m m m m N N b C w ).$X@X#X~.zXN.j.l.C.j.j.l.) p.",
"z.| j.} 9XY. .3XOX@X@X-X<.w A B V B B B B B B B B B B H b - w w b S B B B B B B B B B B B B v H 5 ).$X@X$X~.zXd.n.[ v.j.{ [ [ B.",
"G.N.+.w.e.G.T 6XOX@X@X-X<.w A B B B B B B B B B V B S u 5 7._.2.< u D B B B B B B B B B B B B Z 7 _.$X@X#X^.kX#.n.4.] ` } K #.u.",
"z.F.y. .q.t.E 6XoX@X@X-X<.w D V V V V V V V V V V V n < %X1XhX1XXX5 G V V V V V V V V V V V V A w ).$X@X$X/.rX8Xg.v.R ~ @.%.u.k.",
"%.j.j.0.0.J.k.6XoX@X@X;X<.- V N v m N m m N m N n n = k 1XMXVXnX<Xk ; b b N m m m m m m v N v n 5 _.-X@X#X~.rX! #.#.[ w.w.J.B.#.",
"' d.d.A.x.G.0X6XoX@X@X;X2.= x y r y r r r y x > < < % <.1XBXVXMX:X>.+ 6 < 4 y r r r y y r r x r > _.$X@X$X~.rX` ]  .j.g.[ [ z.[ ",
"O.' j.w.^ j.F.6XOX@X@X-X2.# c y y r r y y y w 2 +XXX+X#XOXsXbXsXOX@X+X+XXX< e x y y y y y y z z > _.$X@X%X/.rX .` N.0.] T ^ U d.",
"j.h.T / L } } 5X@X$X$X>X2.o z t t t t t t t ; 8 -X#X#X#X@XOXOXOX@X@X#X$X$X8 ; t t t t t t t t t % ].-X#X-X/.xXy.w.[ j.C.j.^ ^ H.",
"0.z.0._ L cXeX8 l ;.-.:.g : 3 1 1 1 1 2 1 1 5 3 $X@X@X@X#X;X-X;X@X@X@X#X#X2 5 3 1 1 1 1 2 1 1 1 : k -.-.;.k G cXP.0. .N.} / 4X .",
"k.] j.d.d.2XQ.oX|.`.`.`.&X=X&X*X*X*X*X*X=X*XXX-.oX@X@X@X-Xj X k $X@X@X#X].-.+X*X*X*X*X*X*X*X*X&X=X|.`.|.|.&XQ.G j.c.j.j.' O.A.^ ",
"f.E 0.z.h.7X[.bXBXmXmXmXmXmXmXmXmXmXmXmXNXnX%X-.{.@X@X;XQ.      ).-X@X@X].;.%XnXNXmXmXmXmXmXmXmXmXmXmXmXBXbX'.tXB.Z.j.j.( t.{ [ ",
"9.T 0.k.c.7X'.nXVXVXVXVXVXVXVXVXVXVXVXVXVXNX=X-.oX#X@X>X-.      <.;X@X#X].-.%XNXVXVXVXVXVXVXVXVXVXVXVXVXVXmX/.tXY.u.' 0.' ( Y w.",
"r.w.[ c.[ tX{.dXhXfXfXfXgXfXfXfXfXfXfXfXhXgX%X-.{.#X@X;X:.      Q.;X@X#X].:.%XfXfXfXfXfXgXfXfXfXfXfXfXfXfXdX'.yXk.M.A.i.c.[ ` q.",
"} B.0.6.5.M Q.{.{.{.{.{.oXOXOXOXOXOXOXOXOXOX@X=.oX@X@X;X:.      Q.;X@X@X].-.$X@XoX@XOXOXOXOXOXOX@X{.{.{.{.@XQ.5X6.v.D.a.x.F.j.[ ",
"j.0.z.E 4.cXyXu 3 g 3 g 3 % < < < < < < < < : 2 $X@X@X;X:.      Q.;X@X#X@X2 % < < < < < < < < < : 3 g 0 s 1 u cXz.d.G.M.#.k.8Xy.",
"y.k.M.E  .d.P.G 1 g g l < X # # # # # # # # o 2 $X#X@X>X-.      <.;X@X#X$X: o $ # # # # # # # # o 3 k g k + kX%.k.w.q.e.O.p r.A.",
"~ j.g.T ' T ] 2Xk l l >.g % r 6 5 6 6 6 6 6 = 8 $X@X@X-X!.      ).-X@X@X$X, - 5 6 6 6 6 6 6 6 e % k >.l ;.s kX[ j.%.y.A.t.X.j.N.",
"w.[ E ' E E P 6XOXOX@X;X<.w A B V V B B C B b 8 $X@X@X@X-Xk : -.-X@X@X#X@X8 n B V B V B B V B Z 6 ).$X@X$X/.zXk.d.#.z.D.k.j.C.z.",
"S.u.} c.z.5.E 3XOX#X@X;X1.w H B B B V B V V b h #X@X@X@X@X-X-X;X@X@X@X%X+Xd n V V B V B B B B C 5 _.$X#X$X~.zXw.9.9.k.M.] ' y.B.",
"S.8X} e.B.w.c.3XOX@X@X-X<.w C B B B B B B B b 8 $X$X$X@X@X@X@X@XOX#X$X$X$X8 b B B B B B B B B C w _.$X@X$X~.xXw.9.' 9.[ ] } U.+.",
"w.N.l.'  .( H.3XOX@X@X-X1.w A V B B B B V B b 8 +XXXXX@X@X@X@X@X@X@XXXXX_.8 C B B B B B B B B H 7 _.-X@X#X~.xXA.e.9./ P  .V.I / ",
"p.' g.&.^ ` P.3XOX@X@X-X1.w S V B V B B B V V 5 O % X 2.;X@X@X@X;X:.X > O 5 A B B B B B B B B Z 5 _.$X@X#X~.zXw.p.p.[ %.} ] _ 8X",
"t.) #.g.` } F.6XoX@X@X-X2.% c x x x x x x x c 5 @ + . k >X@X@X@X,X0 . # + & v x x x x c x x x z 4 ).$X@X%X/.rXw.k.4X+.| } +.C.0X",
"] } N.%.} A.r.6XoX@X@X-X2.= y y r y r r x r x * & & $ . !.,X;X,X7.X $ & % 5 x r r r r r r r y r > ).$X@X#X/.rXc.l.%.| } S.y.B.j.",
"Y.+.V.K.` ) a qX#X#X@X-X2.# x y x r x x x x x x c x c @ X j ,.j . + x x x x y y x x y y d y 7 z > _.$X@X-X[.zX} o./ ` l.C.O.X. .",
"Z.S. .%. .} 8.p <.).$X,X<.w A B B B B N B B B B B B V y $ o @ o $ x A B B B B B B N B B B B B Z 5 ).>X$X^.k a A.Y.{ ) _ j.&.S.@.",
"o.&.A.} j.P.j !.:.=.j (.!.w Z B B B B B B B B B B B V B 6 & & & 7 Z V B B B B B B B B B B B V C y _.,.=.=.1.<.2X&.#.j.} Z.+.o.@.",
"{ _ K.P.H.V.3.;X-X$X(.,.: # v d y y r x r x x r y y y x c 7 6 7 c x y y y y y y y r y x y y x v @ 0 ,._.-X-XOX7X_ ] P.C.+.) i @.",
"{ j.| ]  .Z.3.$X@X$X>X;X7.O w c r x x x 7 x r x y y y y y c x c x d y r y y y y y r y r y 7 v = < _.,X;X@X@X'.7X[  .N.} _ &.Z.@.",
"n.K.O.! | B.3.$X$X+X^.$X>X_.@ t y x x x x x r x x y y y y y x y x 7 x x y y x y x x x x y c - : -X;X@X(.#X$X'.7Xj.j.l. .| | } V.",
"{ N. .o.@.p.3.-X+X.   j -X>X-.= c x x x x x x x x x y x y x y x y x x y y x x x x y x x y c @ ^.>X$XO   2 ;X].7X{ K.L.%.%.B.%.#.",
"^  .k.G.p.X.3.;X].    : >X$XXX> z x x x 7 x x x x y x y y y x y x x y y x x y x y x y y x - 0 ;X$X$X    . ;X{.7XZ.&._ f.F.B..Xd.",
"#.Q b.l.[ ~ s.#X$X:.0 ].$X@X;Xg - f d d f d d f d d d d d d f f d d d d d d d d d f d f v # :.;X@X$X!.0 ).$X{.7Xp.j.%.f.c.d.K.j.",
"l.#.g.] #.g.s.$X#X>X,X-X@X#X>X:.. 4 * * & 4 * * * * * * * 4 & * * * * * * * * & * 4 * * - @ ).:X$X@X;X,X-X%XOX7X` j.v.#. .y.n.g.",
"%.%.` N.b.h.j ).~.~././././._.j lX) | ` B./ / ` ` L.^ ^ y.J [ u.G.S.O. .q.k.N.D.d.w.D.h.G.a l ).~.~.^./.~./.W.2XV.n.6.$.^ } l.R ",
"#.l.+.V.H.I.xXyXzXzXyXrXrXrXyXkX#.` I T y.d.[ #.#.[ } ! @.%.j.w.h.D.N.[ 9.i.X.P.P.{ L j.J.M.kXzXyXzXyXrXrXyXeXcX@.b.g.$.[ #.b._ ",
"m.G.l.#.q.l.[ ( d.M.j.B.E 9 K W ] ` L f.h.Q W [  .[  . .j.R.F.g.#.l.N.k.h.9.k.$.y.w.[ w.n.E E ` } N.) [ ^ ~ _ | { +.l.n.] _ g.d.",
"d.L.j.l.C.E d.k.B.I.U E E U 6.m.K ' b.E W U v.` ..} l.l.[ ' z.[ ( j.l.D.h.E { [ 9.~ l.B.w.#.4.P ] j.) _ ^ w.L w.y.~ [ b.] l.%.%.",
"%.j.q.U.P.z.%.[ k.K.[ ' ^ 5.m.E ! j.M.` 0..X%.^ )  . .U L L U d.+.[ w.w.d.l.} ` ] L 0.' ' +.A.c.Q [ L +.&.k.B.b.` ^  .$.l.V.#.#.",
"l.f.c.m.[ N./ R m.n.P.G.[ #.C.D.9.#.! ' x.5.%.j.#.0.0.P.B.^ ^ 8Xz.h.T 9.C.#.I E R #._ 9.v.k.r.B.z.K.' t.0Xw.k.| K @.` l.V.` #.l.",
"j.g.v.F.I.j.j.d.%.w.b.m.9.w.{ t.E.] q E U q U z.E.9.q.B.r.~ 4X+.[ F.c.T d.4.^ F.m.g.W 4.R f.y.` u.B.C.Y.J.Y.z.U #.) ( M.` ] z.C.",
"b.] e.F.I.4.g.K.I U Q g.k.q.^ k.K.[ 4.W U U I ] f.m.E ` ( t.Z./ 0.d.w.^ E 5.h.] d.d.v.h./ j.E 9.k.' k.z.B.} I.6.L ^ ` l.N.h.0.%.",
"%.E e.c.#.g.g.l.l.g.0.g.c.T 0.k.#.o.c.x.P.h.[ ` j.C.d.j.' q.) [ m.5.T q.z.4.4.U ` { } ' e.I.c.9.g.Q E ^ j.%.6.k.} j.j.` k.f.C. .",
"0.f.d.d.} k.z.] [ w.j.c.k.G.G.k.B.{ u.u.c.J.l.} H.w.[ d.` ( / w.9.0.4.9.k.R ] } q ^ } { j.P.J.c.Q _ Y h.k.H.h.B.D.4.` ` [ y.L.[ ",
"h.x.` z.c.d.x.0.~ p.X.t. XE.I.I.P.L %.Q x.R.E.F.j.x.B.t.k.' ` } r.' E h.T E _ A.#.L { ' d.x.M.d.F.0.#.Q 9.G.Y.5.k.x.k.{ J K.l.I ",
"#.k.F.m.f.M./ x.x.+.i.q.v.h.q.U.m.E x.x.0.0.c.I.5.g.e.a.f.k. .' t.B.[ 6.5.]  .0.d.l.Q d.9.h.v.n.d.l.h.[ l.4.f.I.G.0.l.%.Y [ C.n."
};
