/* XPM */
static char *_d1aed1d0054401bad3fc42bcf16beaeFBJST9YxKSLjAcuN[] = {
/* columns rows colors chars-per-pixel */
"64 64 213 2 ",
"   c #48670D",
".  c #56760F",
"X  c #557811",
"o  c #5D7A1B",
"O  c #67731F",
"+  c #667F1D",
"@  c #6A7F1D",
"#  c #567620",
"$  c #5D7321",
"%  c #5D7823",
"&  c #637C25",
"*  c #687D25",
"=  c #6A782B",
"-  c #707B24",
";  c #6D7234",
":  c #697F31",
">  c #807E41",
",  c #907949",
"<  c #5F8516",
"1  c #5E821D",
"2  c #6B8D0F",
"3  c #638317",
"4  c #678916",
"5  c #6B8817",
"6  c #64841B",
"7  c #6B851D",
"8  c #658B1B",
"9  c #6C8C1D",
"0  c #70861F",
"q  c #778E18",
"w  c #728C1D",
"e  c #6F9715",
"r  c #66911D",
"t  c #6E931C",
"y  c #739415",
"u  c #749A16",
"i  c #7A9C17",
"p  c #74941D",
"a  c #79951D",
"s  c #759A1D",
"d  c #7B9C1D",
"f  c #7DA217",
"g  c #76A11D",
"h  c #7CA31D",
"j  c #7DA91D",
"k  c #5F8126",
"l  c #658523",
"z  c #6A8524",
"x  c #678F21",
"c  c #6C8C23",
"v  c #658229",
"b  c #6B8629",
"n  c #6D8B2A",
"m  c #728524",
"M  c #7B8527",
"N  c #738D23",
"B  c #798E23",
"V  c #72842B",
"C  c #7A872B",
"Z  c #738C2A",
"A  c #7B8D2B",
"S  c #6E9222",
"D  c #6F9A24",
"F  c #6E9329",
"G  c #749423",
"H  c #7B9424",
"J  c #759B23",
"K  c #7B9C24",
"L  c #74942B",
"P  c #7B942C",
"I  c #759B2A",
"U  c #7C9C2B",
"Y  c #6B8131",
"T  c #758432",
"R  c #798532",
"E  c #758B32",
"W  c #7B8B33",
"Q  c #759431",
"!  c #7C9432",
"~  c #769A33",
"^  c #7C9B33",
"/  c #7B913C",
"(  c #7C983A",
")  c #7DA224",
"_  c #7EAA24",
"`  c #77A02A",
"'  c #7DA22B",
"]  c #7AA529",
"[  c #7FB022",
"{  c #7DA132",
"}  c #7EA931",
"|  c #7DA238",
" . c #819C1F",
".. c #81A41E",
"X. c #89A71C",
"o. c #83AB1D",
"O. c #89AB1C",
"+. c #83B11D",
"@. c #8EB219",
"#. c #838F23",
"$. c #838D2C",
"%. c #888F2E",
"&. c #819526",
"*. c #839D25",
"=. c #8A9D25",
"-. c #83952C",
";. c #8A962C",
":. c #839C2B",
">. c #8A9E2C",
",. c #919C2A",
"<. c #838E31",
"1. c #848A3D",
"2. c #839533",
"3. c #899534",
"4. c #839C32",
"5. c #8B9D33",
"6. c #849539",
"7. c #8A943A",
"8. c #839A3B",
"9. c #8A9C3C",
"0. c #919D32",
"q. c #929D3D",
"w. c #9B9C3D",
"e. c #83A325",
"r. c #8AA425",
"t. c #84AB25",
"y. c #8BAB25",
"u. c #83A32B",
"i. c #8BA42B",
"p. c #85AA2B",
"a. c #8CAB2C",
"s. c #92A624",
"d. c #91AB23",
"f. c #91A62C",
"g. c #93AC2C",
"h. c #99AC2C",
"j. c #85B223",
"k. c #8CB325",
"l. c #87B821",
"z. c #8EBA26",
"x. c #85B12C",
"c. c #8CB32C",
"v. c #8DBA2D",
"b. c #93B425",
"n. c #97B825",
"m. c #93B22C",
"M. c #99B52C",
"N. c #94BA2B",
"B. c #9DBC2C",
"V. c #84A432",
"C. c #8BA433",
"Z. c #85AA32",
"A. c #8CAB32",
"S. c #85A43A",
"D. c #8BA33B",
"F. c #87A93A",
"G. c #8CAB3A",
"H. c #93A534",
"J. c #98A533",
"K. c #93AB33",
"L. c #9AAC35",
"P. c #93A33C",
"I. c #9CA43B",
"U. c #93AD3A",
"Y. c #9AAC3B",
"T. c #87B037",
"R. c #8BB332",
"E. c #8DB832",
"W. c #87B03A",
"Q. c #8CB33B",
"!. c #8DBC3A",
"~. c #93B333",
"^. c #9AB433",
"/. c #94BA33",
"(. c #9BBB34",
"). c #94B13B",
"_. c #9BB33B",
"`. c #96BB39",
"'. c #9CBB39",
"]. c #A4B32D",
"[. c #A1A23B",
"{. c #A3AE3D",
"}. c #A3B435",
"|. c #A1BE33",
" X c #A8B937",
".X c #A2B43A",
"XX c #A4BB3A",
"oX c #ABBA3C",
"OX c #9AC42B",
"+X c #9BC03E",
"@X c #A1C827",
"#X c #A2C435",
"$X c #AACB34",
"%X c #859C42",
"&X c #8B9D42",
"*X c #829749",
"=X c #939E40",
"-X c #979C50",
";X c #8CA241",
":X c #86AA40",
">X c #8BAB45",
",X c #94A444",
"<X c #99A344",
"1X c #92AC43",
"2X c #9CAD45",
"3X c #94B343",
"4X c #9BB343",
"5X c #9DBA40",
"6X c #A5AE40",
"7X c #AAB545",
"8X c #B3B241",
"9X c #9FC34B",
"0X c #ABC245",
/* pixels */
"u.j e.U :.:.%.;.m.m.^ P e.g.U y.m.e.a.;.J.>.U r.r.s.^.g.) u.9.6.u.U a.K ..t.a.e.P e.G A.i.=.^.s h A.:.i.^.u.g.i.N. .3 ! `.N.G.J ",
"U C.C.8.= H 6X{.y.(.2.-.r.M.y.a U C.a u.<.2.u e.-.H P :.W : A D.U :.m.K :.*.i.t.e.H :.U e.r.K.y.w >.a.~.^.a.K.s e y p b H.+.e.' ",
"u.5.>.W ; q.U.~.y.$.5.d.e.H.a.>.i.y.h y.2.R L U :.^ 4.q.6.E u.^ b U K A.( F L G p C.P H u.H u.a.:.H L.g.e.:.G t.U c x.) u.) u.U.",
";.i.~.m.R 1.$XOXK H a.k.d 0.C.u.&.i t.u.:.U >.i.u.u.a.g.r.:.p.a.:.K 9 p.T.^ 1X&XO a.U n A.:.B U e.A w.u.) ) y b.m.) u.r S R.H m ",
"m C.).u.& r.].}.i.7 e.u.:.u.K N a.a &._.J.K.*.U :.:.e.p.s G 4.G.G.D.H ~.A.Z./.4X%X~ A.! ( u.B >.&.K :.i.U k.y.U R.c.r.K J ) ! G ",
"e.K.:.V &.t.C.K.a G A.u.U :.:.G :.u.>.J.C.K.U U -.U V.U G ! _.~ V.&XU J.Y.) c { :XQ L Z ~ G.C.e.2.J.C.M.U U K.K.a.G.) y.r.c k.b.",
"u.i.a.:.U H K.p.p p.:.U e.b 6.^.:.C.:.:.K a.i.^ a.D ^ K I W.8 9 :.Z.p.U ' 4.Z ] ~ # Q x { Q.J ' 2.i.:.u.s d 4.A.u.Z.e.A.g.' a.g.",
"L A.p.p._ e.N G ) u.U W - ;.2.C.C.7.;.A.e.u.A.! C.S.L G G I S ;X&XG x.I c ^ e.) ` ~ k { W.I ] A.e.e.d r.r.' ` } Z.] K.g.G :.5.a.",
"J.m J t.o.y.J e.o.N U 2., 3.p P N :.C.V./.i.2.~.u.Q ! P L U V._.6.V ] p.L b A.u.:.) v L T.` Q 4.u.K a.~.I ( 3XG.F u.R.:.M [.i.w ",
"9.w K G *.J.#XN.e.U V.J.w.>.J P 2.U p.' ' u.H.b.h v U :.>X4.C.' w U Z.) Q G.V.L S p.' % I c.Q b p.' U Z.n b A.L G i.a.g.f.f.^.C.",
":.:.N U K.r.:.a.t.r.&.A V 4.' P _.A.N.D 8 u.N.k.l W p.} C.P W ' `.^ G.R.c ^ 4.Z 9 V.{ F r x.3XP s G I } A.c U Z.K.i.P u.*.j u.' ",
"i./.L U U o.L :.u.f.P P P U C.K.c.A.U U H u.a.a.S { { 6 u.Z.S.Q ^ G.U ` { L A.E.t L >XT.I E.p.l b ] J ^ K c.U U.U.,XP.U.i.a.*.U ",
"x.} 6 o G t.K m - g.:.U U D K ' K U u.5.V.u.;.H.t.G P Z F.^ ~ / / { F.Q a.(.G.U Q.>XR.] | Z.u.Q | Z.G.Z.Z.Z.V.:.e.) A.4.9.P & u.",
"i.' ' 6 ' e.t.U @ ) *.H e.U U L :.K c G u.p H U.N.J H 4.( n % ( ^ c /./.G.R.a.`.9X3XV.( ` ` U.H.V.A.A.K.p.A.a.a t.t.d G Z b L A.",
"S.^ S G p.r.Y.H.w c H H ) t.e.( :. .H G :.U 4.-.c.v.j N L | F.I I u.' G { V.a.).' s I L m C u.i._ :.u.L L u.*.*.s J K Z c U ) 4.",
":.).G c U ) :._.u.7 G ~.U S I A.:.] i.H h *.C.C.A.v.e.U I I Q A.c.E.Q k I U.`.V.C.G I u.;.4.`.' ) R.Z.K L H ) ] G L ^ U u.u.G N ",
"b I.h.y P / i.y.x.i 0 i.C.H 4.e.t.p.p.H ^ u.H C ! !.A.' ' Z.V.` I ^ U ! / S.[ p.^.;.5.).A.' y.x.` ) x.) p e.U I Q L a.A.' :.! :.",
"2.5.XXm.q >._.:.A.b.X.0 b :.c.U ` d t G I c M 6.;XF.I r.K.D.#Xe.l U 4.^.6.T ^ A.U.~.G ^ } r.U l.] 7 D s j ` G ! } ' Z.i.G J U 4.",
"' *.K.K.A.g.f.u.H 4.m.=.5 a U.:.K I / p s J J V 7.u.] t.h.e.~.p.K ) k.t.U = V S.2XK.G ^ i.G.a._ t.Z.u.{ E.U I V.u.u.).u.] p.Z 9.",
"a.I :.P <X_.*.9 N H m.|.a.H K ) F J -XW 7 V.u.w L t.k.] U :.c.t.t.) [ F ' t.x C.C.J.L.u.p.Y./.J t.z.N.Z.Z.C.n *.y.K l.u.P K K C.",
"}.V.! :.:.Y.a . l C.r.{.h.e.:.H *.k.C.L m -.t.e.a.E.+.[ c ! a.g U p.J V.Z.k.t.5.%.;.y.p J m.d.t.] j t.J 3 n I ) b...p G P 6 ) 0.",
"a.A.4.U $.4.f 3 L 2X.X8Xs.H a.p. .g.k.D G.U.u.A.r.N.o.) J g x.G ) a.^ Z._.'.p.b H.y.K U a.z.H K t.g _ ) G P | S.e.z.s z Q } 5.u.",
"' u.u.u.:.P.i.l n A L.7X{. .7 K Z.3XK.V.V.E.J.&.P 0Xp.c.J S p.u.n.^.A.] &.c.K m r.m.f.a.R.u.:.U +.j S J r ) ^ b ] ) U u.u.Y.C.) ",
"H ) e.C.f.J.5XS.& 4.*.&.Y.:.w L E.A.P u.t.) L r.).).j +.` p.t.K u.).u.p.A.d e.i.G.'.o.h 6.-.u.R.4.P 4.I ) H c p K U ] r.*.H a.K ",
"2.H u.:.N r.A.! L ( L B a.u.c.p.>.,.a.m.e.K G H h e h d p.Z.) ) ' Z.U ~.~.y.] u.K./.t.u.-.N A.!.; -.`.' i.A.] U N V.e.K p c u e.",
"' y.d m l 4.P G ~.4.P '.y.d ~.i.*.,.M.a.i.U f.V.u.K G Z.p.G ) a.Z.i.m.^.U C.m u k.R.).XX) D G.0..X'.t.4.A.p.u.{ u.I i.A.:.c c U.",
"*.a.e.S 9 B S.p.G u.C.oXJ.&.7.C.i.M.o.r.g.P y.c.t.w B /.I U a.A.p.t.b.J..Xu.u.e.e.4.m.n.*.p.Z <.XXG.C.*.G Z.A.V.m.-.U u.A N %XU ",
"i.K :.e.e.K G :.I U a.,.0.M.U % r.e.u.r.U P +X+.< m c p.u.y.K ' c.J -.~.B.o.t.E.t y j x.f.:.z i.c.u.Y.t.K F.^ u.u.g.u.' H / G.c ",
"r.i e.i.t.h G e.K b H *.i.~.g.w ) h p m A.t.+.i.P :.e.L i.s.u.U U J >.c.) t.t.V.k.t.) t.m.B i.i.' L C.J.^.p.U I Z.D.u.u.B 2.L *.",
"*.H =.C.C.y G { v z L U p._.Y.m.j N p y.p.Y.y.>.L.) H G G 4.T.J =.r.e.r.H A.R.J U 4.u.f.f.}.(.C.C.L C.5.f..Xi.U 4X5.H ..H m w u.",
"W :.a d.K d z F.e.9 U H U g.b.r.h.u.) j U L.^.k.i.a.A.L 1 p.t.t y.g.H a.m.u.r.*.* 6.Q ;.B. X^.'.(.w *.h s.I.XX_.i.m.D.7.h.H G :.",
"2.C.K k.o.d :.K e.p.K e.*.y.N.p.e.a.t.G u...*.^.K.r.e.U G G T.c.K *.K.N.s.~.w s.h.^ 6.2.m.y.:.).N.d L.a.e.*.U.m.O.k.K.0.i.K.u.K ",
"u.:.a.i t.r.~.*.P u.p A.:.r.m.d h C.:.u._.t.a.i.z.d 3 4./.c.A.J ' ) e.K -.i.$.5.m.g.C.! d a.U r.m.t.K.;.H.=.H f.X.=.^.g.e.i.D.4.",
":.u.m.d K r.a.k.t.&.u.:.y.r.K.y.w i.g.~.^.y.J.p u 9 p b A.j.u.U H i.S.8.= H 6X{.d.(.P :.a.M.y.p U A. .:.3.6.s j i.-.P i.W Y W D.",
"b :.y.a H G H K H K.A H u.H :.g.e.B L.m.e.:.G t.U c R.J u.K e.A.u.5.:.A ; q.U.^.y.P 5.b.=.H.K.i.i.o.f y.-.T G U u.' :.9.6.E u.G.",
":.K K a d a p G 7 h.U c ).U N u.o.C =X>.) K e b.N.K t.9 D c.H V :.i.~.h.R 1.$XOXK P s.c.d f.C.e.i.a t.u.4.U >.i.e.e.a.K.i.u.i.a.",
").5.P g.a...K e.G p `.V 2.a.Z i.:.U :.i.U v.O.U c.c.r.K s ) ! J N C.).e.$ a.].}.i.7 e.) :.u.K N a.H &..XP.J.*.U *.&.i.m.J H 5.S.",
"G.;XH i.C.:.g...y d U R V 7.Y.r.3.L.K.^.U *.L.L.A.G.] r.i.S k.y.*.K.:.V -.t.A.K.s G A.U U V.U c :.a.:.h.J.H.P 4. .&.&.d J P ).:.",
"U Z.p.P H L U.N.j d 7 b : A i.u.;.a.&.y.s s U Y.u.a.p.g.m.U a.h.e.u.a.4.u.K Y.t.t x.U ) p.) a.(.:.J.:.:.*.i.4.C.;.*.w w U Z.r p ",
"6.H t.^ c G ~.y.K e.n 4.p.e.J e.t.r.e.r.a c.^ -.:.` K.A.p :.P.:.G A.a.p.) e.m G h C.P e.u.5._.'.C.3.3.4.K H P :.9.&XU u.L L D ;X",
"6.V ) p.G A ~.p.i.r.9 U t.K K e.' s a.g.H N x.&.d a.).:.M [.f.p U.M J t.o.t.K e.o.9 P e.) K.g.*.7 J } V V.-.V u.u.%X^ U L U S.4X",
"K U V.) U D.1.U ) e.e.G s U I t.4.K K i.y.u.a.G H g.c.s.f.K./.K.7.B K I &.L.$XN.) ] ' ) :.*.Y.S.M L ] p.L G :.~.p.U I U G.4.C.u.",
"/.4.S.R.G Z > G p ) U H j Z.^ I u.u.0.Y.6XD.^ A.K.H.:.u.&.e.p.U U *.N U ~.>.-.c.y.u.u.S 8 J 4.u._.i.c.{ U ) J :.! m I Z.C.U W U ",
"S.F.U ' U L 2.' h s u.K p.S.U.u.N U =.5.:.m m '._.<XD.3Xa.a.u.H a.`.L U e.o.G U a.4.t.] G ) i.c./.E.U G R.C.>.C.`.L N c u.V.F.( ",
"Q 4.S.U p.~.I r U N r.j ! 1XA.a.N L J K p H C.4.a.) a.4.D.P z u.c.' 6 o p t.G 4.P U F } u.I ] a.e.p.V.u.A.U i.a.^ K u.^ F.^ L %X",
"L c E.R.U.u.3 c p.K + 4.P u.8 a.' L y.G p.~.i.a y.k.g m V b I A.A.u.' 6 ' t.t.u.B K J I K a.G $.&.k.t.Z.G.:.U e.S K c.A.~ n # ( ",
"L ' U J U S.H G t.h G Z V *.G G c U d l L A.*.) e ' u.c l ) r.C.S.^ S J p.a.~.m.R.K t ) a.C.V.w u /./.U G u.A.d ' U u.P F { S.L ",
"E.R.! l I G.u.e.A.) { I z G ] ' G s b U P H a.e.K 3 l V.C.p.G 7 V.U.G n u.e.m J._.t.p e.u.u.t.a.A.C.XX>.:.Z.u.j e.:.p.' U I L V.",
"G V.U ! / S.e.N I 8 ^ ).] p I G H p K t.u.u.w p /.I c ' u.V.! U c I.h.5 r.e.p i.i.o.O.) p.).(.~.R -.C.C.`.U I U P R.A.' ' Z.' ) ",
"n U i.K.4.T u.G 8 8 o 6 t s 9 K 4 7 ..< :.g.y a.a.H Z.6 l K 4.4.4.3.oXy.j y.*.V.^ G m.r.^.P.'.a.G U U C.).p.c 2.S.V.G r.H.C.#Xe.",
") ) c.t.G V Z ' K S U s ) p J r.L G :.G I u.K.a.K K U N u.Z.Z 8.A.U Y.'.I M &.A.! *.o.e.K #.&.H ) U -.H ;.:.K Z 4.u.' u.g.e.~.' ",
"t.) o.I ] ) I r.o.s I J b.u 6 p.S.G G i.e.N *.A.^ S.9 K U K K D.a.I U :.9.9.a.d *.h.s.R.K.q U k.r.p.V.U *.-.:.z G u.c.j K 4.c.t.",
"' ' J V.Z.k.p.4.i.r.e X 6 K 9 H J G K a H.N N a U Q.n c 4.< ) ,.].C.( U -.A.V.H.u.:.P.y.Y.^.k.OXa.p *.3.K.c.F L Z.c.o.t.c P p.g ",
") a.^ A.U.(.p.V C.A.F.4 c U J X J s y a U ) K K ) I P v ~ ' u.:.i.K.V.K =.7.R ~.~.G 7 u.L.R.) :.c G ) w :.e.` ` ~ a.+.] K ` t.I ",
"b.K.p.K -.r.K N u.m.u.A.r.  7 j s G 9 t.y.j f U U d U U V.6XC.t.' Z.u.i.y.H r.) 4.:.K :.g.d d p L ^ G J c b G I P ! t.E.` 9 t.e.",
"e.Q.V.t.a.K ) i.A.^.y K d 2 @.z.7 I a.a  .u k.I : P p.y.K &.a.d m u.t.H.d.d L U *.c a.C.:.) j 5 K u.Z Z c U m U 4.z U l.J A.] K ",
"' p.P `.).a.) ) A.m.K H 9 X.b.i l C.m.p =.@X' l N U :.y t 6 y r.4.U u.:.) a.H I J c e.B H 4.H.g.g h c ^ } u.i.p.F c U ) t.Z.) ) ",
"Z.u.s.M.J C.N p m.R.).K.) ] G.H.*.) b N i.y.U u.) *.:.~.V.z n G.p.y.a &.A.K 9 s s K G K @.i.1.C.a.A.H 4.4X4.i.] 9 ~ G u.Z.L ) p.",
"e.t.z.J.(.u.u.e.e.4.c.b.-.u.P 2.(.G o i y 3 u g.(.&.-.A.<.m *XU d K.g.a e.h c ~.m.t.h ..J a.4.G 5.C.A.Y.Y.Y.s.G K Z N /.G K a.a.",
"c.J -.K.B...t.E.e y h t.f.&.z i.v.U r.f e y p I i.n.d G m 6.G.N =.e.:.c a r.y.d t.) @.r.m u.d *.i.&.i.i.C.U (.+.9 c G p.u.y.U u.",
"' p i.a.) t._ u.t.t.e.t.a.a &.f.' L A.H.~.y.J p u.C.r.u.H P Z U b.o.a -.c.....i G L P *.C.m.h.H t.j H 0 u.) +.a.A u.e.H i.s.u.U ",
"=.r.e.r.P A.a.J U :.u.f.i.^.^.i.i.L >.0.J.L.a.U U.4.*.) H N N :.&.&.X.*.u.a d L & c L H u.).Y.a.j c p y.i.U.y.5.J.e.G p L S.R.U ",
"y.g.N a.K.e.a.&.* 4.E 3.B.oXh.`.~.9 ) d s.Y..X).:.m.C.2.i.H G A <.P d y.a d S G.K 9 H H *.s.b.r.h.u.) j &.L.^.k.a.a.C.L 1 R.x.e ",
") r.K.N.s.m.w g.s.4.8.P y.y.:.).N.d H.a.r.:.K.m.O...5.0.i.i.U K 2.C.*.O.o.s U U u.t.] ..*.a.z.p.e.u.y.U a...u.^.A.=.t.U G K a.R."
};
