/* XPM */
static char *_16fa5488c654f12929df250c0dce329qrhcuX5N2XfBSqRs[] = {
/* columns rows colors chars-per-pixel */
"64 64 246 2 ",
"   c #050501",
".  c #090703",
"X  c #0A0905",
"o  c #0D0D09",
"O  c #060802",
"+  c #130C06",
"@  c #190F06",
"#  c #120D09",
"$  c #1A0F08",
"%  c #14110A",
"&  c #1B1309",
"*  c #1F130A",
"=  c #181711",
"-  c #241509",
";  c #25190C",
":  c #2C1B0C",
">  c #281609",
",  c #331C0C",
"<  c #391E0C",
"1  c #2D1E10",
"2  c #221A11",
"3  c #2F200F",
"4  c #35210E",
"5  c #3B230D",
"6  c #3A290F",
"7  c #2D2112",
"8  c #342413",
"9  c #3C2612",
"0  c #3C2813",
"q  c #382B15",
"w  c #3F3416",
"e  c #3C3E0C",
"r  c #44250E",
"t  c #4A280F",
"y  c #463B0E",
"u  c #432611",
"i  c #442B13",
"p  c #4B2D13",
"a  c #462E19",
"s  c #522E12",
"d  c #453114",
"f  c #4C3315",
"g  c #463B10",
"h  c #4C331A",
"j  c #4A3914",
"k  c #543415",
"l  c #5B3616",
"z  c #533B14",
"x  c #5B3A16",
"c  c #533519",
"v  c #54391A",
"b  c #5C3C1B",
"n  c #5A3719",
"m  c #502B0F",
"M  c #613916",
"N  c #633D1A",
"B  c #693E1A",
"V  c #653B16",
"C  c #5B3F21",
"Z  c #3D440C",
"A  c #4B4C0F",
"S  c #4B4B08",
"D  c #54470E",
"F  c #4D590E",
"G  c #53550E",
"H  c #5C550E",
"J  c #5C5C0E",
"K  c #545C0F",
"L  c #4B4311",
"P  c #4E4B12",
"I  c #554513",
"U  c #5B4315",
"Y  c #554B13",
"T  c #5C4C14",
"R  c #5D431B",
"E  c #584A19",
"W  c #4D5212",
"Q  c #555312",
"!  c #5B5313",
"~  c #545C12",
"^  c #5C5C11",
"/  c #5A5718",
"(  c #635D0F",
")  c #634416",
"_  c #634C15",
"`  c #64431C",
"'  c #6B441C",
"]  c #654B1B",
"[  c #6C4B1D",
"{  c #6C4717",
"}  c #71451C",
"|  c #734A1D",
" . c #794C1D",
".. c #635415",
"X. c #6B5515",
"o. c #635C14",
"O. c #6A5D15",
"+. c #65521B",
"@. c #6B531D",
"#. c #6D5B1C",
"$. c #63591A",
"%. c #74531D",
"&. c #7A531E",
"*. c #745C1C",
"=. c #7B5B1E",
"-. c #755D16",
";. c #5D630E",
":. c #5A680A",
">. c #576212",
",. c #5D6412",
"<. c #5C6B12",
"1. c #596515",
"2. c #5D7212",
"3. c #5E7A14",
"4. c #5B710F",
"5. c #63640F",
"6. c #636B0E",
"7. c #656B09",
"8. c #69770C",
"9. c #757C0E",
"0. c #636412",
"q. c #6A6514",
"w. c #646C12",
"e. c #6B6C14",
"r. c #656119",
"t. c #6C641A",
"y. c #6C6B19",
"u. c #646A19",
"i. c #746315",
"p. c #736C15",
"a. c #73641C",
"s. c #7B631D",
"d. c #736C1C",
"f. c #7B6B1C",
"g. c #796917",
"h. c #647313",
"j. c #6B7413",
"k. c #657B13",
"l. c #6D7B14",
"z. c #667319",
"x. c #6D7319",
"c. c #6D7B18",
"v. c #677C19",
"b. c #727415",
"n. c #7B7316",
"m. c #737C15",
"M. c #797C16",
"N. c #74731B",
"B. c #7C741C",
"V. c #747B1A",
"C. c #7B7C1A",
"Z. c #644421",
"A. c #6C4C21",
"S. c #684822",
"D. c #734C22",
"F. c #7A4E21",
"G. c #6D5221",
"H. c #6E5B21",
"J. c #745422",
"K. c #7C5323",
"L. c #735B22",
"P. c #7C5A22",
"I. c #7D5429",
"U. c #7C592B",
"Y. c #73532A",
"T. c #5F6A21",
"R. c #6C6B28",
"E. c #736323",
"W. c #7D6422",
"Q. c #756B22",
"!. c #7B6B23",
"~. c #7A6C2A",
"^. c #7B7523",
"/. c #797B26",
"(. c #717B2C",
"). c #5C5026",
"_. c #815E1F",
"`. c #816B1E",
"'. c #82641F",
"]. c #83751D",
"[. c #837B1D",
"{. c #835525",
"}. c #835A25",
"|. c #895C26",
" X c #855B29",
".X c #8A5C29",
"XX c #825628",
"oX c #846323",
"OX c #8A6325",
"+X c #846B23",
"@X c #8A6D25",
"#X c #8C622A",
"$X c #856829",
"%X c #95682C",
"&X c #837221",
"*X c #867B23",
"=X c #856D32",
"-X c #947B40",
";X c #6C820D",
":X c #668214",
">X c #6D8215",
",X c #6D8419",
"<X c #6F8B17",
"1X c #748315",
"2X c #7A8416",
"3X c #758A16",
"4X c #7A8A16",
"5X c #758319",
"6X c #7B841A",
"7X c #758B19",
"8X c #7C8C1A",
"9X c #7C9317",
"0X c #75921A",
"qX c #7B931B",
"wX c #78971B",
"eX c #778A10",
"rX c #7D8422",
"tX c #7D8B22",
"yX c #7E892D",
"uX c #7F9522",
"iX c #7C8536",
"pX c #818C17",
"aX c #84841C",
"sX c #828C1B",
"dX c #89861D",
"fX c #82941B",
"gX c #829C1C",
"hX c #89971D",
"jX c #81930E",
"kX c #888722",
"lX c #869725",
"zX c #8F9338",
"xX c #878C44",
"cX c #8B9249",
"vX c #9D9B56",
"bX c #9D8540",
"nX c #9BA44D",
"mX c #979762",
"MX c #A09F6D",
"NX c #9FA660",
"BX c #ADB169",
"VX c #AFAF6E",
"CX c #A5934D",
"ZX c #C4BE7E",
"AX c #B9B486",
"SX c #C3BD89",
/* pixels */
"L w.w.<.3.3.k.~ 4.:Xh.3X>X6.k.j.h.k.k.k.3Xl.h.h.J D ^ h.5.e.l.4X2X2Xm.m.pX6Xb.1X2Xm.q.1X3X9XqXl.1XM.1X2XM.2X4XpX4Xj.m.3Xk.h.<Xh.",
"Q Q ~ A ~ 3.:X<X2.>.l.k.h.h.k.w.h.>X>Xk.k.l.h.w.w.l.0.^ o.o.0.V.8XM.e.M.j.b.M.2X2Xc.e.2X1X1X0X5Xc.e.9.2X1Xm.M.9X8X4Xh.w.j.l.h.:X",
"l.h.~ <.>.~ 2.3.3.2.2.1.j.k.l.m.w.h.h.>X>Xh.,Xk.e.k.M.m.j.6XV.b.l.b.fXM.r.8X4Xw.2X1Xm.1X3X9X7X3XfX2XpXM.sXM.M.qX3X3Xj.0.l.x.,.7X",
"<.h.v.2.3.2.4.h.,X:XQ h.wXw.h.l.h.l.k.,X<X2.2.u.e.e.e.6XsX6Xe.2XsXsX5Xb.m.8XsXM.4X1Xj.j.1XwX3X4X3Xj.1Xe.4X4X4XgX3Xm.m.9X3X^ 1X0X",
"w.1.4.:X2.<.:Xv.v.:.<.h.k.j.1Xh.l.0.h.h.2.0.0.j.6Xb.p.M.V.b.V.n.6XhXM.M.b.M.2XsXm.5X8Xc.w.1XM.k.j.V.m.l.1XfXgX7X1X9X7X7Xk.j.k.c.",
"<.2.2.:Xh.<.:X:XF 6.j.8.e.1Xh.w.h.^ ,.>.0.o.e.n.e.V.C.n.p.n.C.p.q.8XsXM.6X6X2X8X2X6XfX8Xm.V.e.,.b.m.M.5X1X3XqX>Xk.3XgXM.M.m.j.l.",
"k.,X<.K 4.8.Q <.>X1Xj.k.5Xl.~ e.0.~ ,.0.e.6XM.V.q.e.M.p.n.dXdX[.n.d.a.2XaXV.6Xx.x.V.b.M.2XM.M.M.b.m.e.4X8Xk.e.m.1Xo.j.wX9X1X2Xj.",
"k.k.<.h.l.j.5.J k.w.l.w.h.w.w.h.w.^ 0.M.q.V.M.e.C.].n.aXB.d.V.V.n.`.[.aXa.-.f.B.O.e.pXb.b.M.n.2XpXM.M.l.1X6.8.3X1X1Xm.M.e.b.1X2X",
"4.h.;.>X4X1X3Xw.z 6.0.Q w.l.h.,.h.w.j.M.n.sXdXg.6Xe.X.B.B.*.*.*.s.[.kXf.*.f.f.d...Q m.m.b.6Xb.M.pXb.4X5Xk.tXkXlXlX4Xm.e...e.b.m.",
":.k.3Xk.j.k.0.e.b.w.^ k.h.v.J Q w.M.6Xn.n.lXhXp.p.a.f.*.*.'.+X'.`.B.`.'.s.a.X.T ..z L Y e.b.V.pXhXsXfXm.w.BXZXSXnXz.MXkX9.2Xp.9.",
"S 1.7Xw.w.6.5.m.l.J >.,.P >.h.,.5.p.q.n.p.e.i.X.[ ].&X*.W.s.`.oXoXs.s.s.s. .) ) &.{ p n ..0.M.C.8XV.b.b.b.zXvXcXkXzXVXd.eXpXpX2X",
"~ <X,.;.j.j.6.j.5.w.K G w.<.h.V.p.C.aXn.e.p.i.s.oX+XB.oXoX%.s.@XW.*.=.s.=.&.k l ' { l U *.0.2XsXm.n.b.4XhXj.6.7.h.V.1Xm.[.pX2Xp.",
"0X,.,.8.w.l.6.h.l.,X,.K 2.z.c.C.M.kX[.[.n.b.( ..+X@XoXP.oX}.P.J.%.}.|.}.J.{ x p m x p z ..^ j.6Xm.8X6XsXfX6X1Xj.b.j.2X8XpXpXb.g.",
",X;.h.w.5.e.;.w.k.l.<.h.,.1.e.B.[.].[.kX`.p.U x &.P. ._ ] J.U.P.}.}.P.{.K.| } B t l ) z _ 0.b.2XdXM.6XsXe.m.8Xb.e.j.b.m.jXsXpXhX",
";.h.5Xh.;.h.w.h.7Xk.<.w.! ! #.[.[.'.f.^.s.oX#X' f x [ &.[ G.J.K.K.K.J.K.{.{..X.X{. .X._ U ! j.[.lXkXaX6Xj.sXqX6Xb.m.b.m.fX2XpXpX",
">.1X>Xl.w.w.h.<.l.>Xl.0.e.p.].B.].@X_.%.}.OX.X{.k u b K.A.A.L.D.A.' } F.{.{.{..X%X|.M U _ U ] `.[.dXaX6XsX8Xx.V.8Xe.c.m.4X2X9.M.",
"2.h.;.h.>Xw.j.J k.l.w.1X8XaX[.i.-.@XOXoX|. XXX XF.u i ` v v S.C } Z.N } F.} XXXX.X%X&.x D _ s.].dX[.dXC.B.V.2X8XqX7XV.8Xl.m.4XpX",
"<.G 1Xk.<.h.3Xe.j.6.r.M.C.[.M.[.=.}.}..X.XXXI.I. XC 8 f d 7 6 C Z.n c B } XXXXXX X#XOX_ _ }.@X[.dXdXdXn.i.6XlX8Xk.8X7X8Xc.o.b.4X",
"J k.7X6.w.k.8.w.5.j.2Xp.[.].O.p.`.}.oXoXXXI.D.D.I.C 7 9 q 1 ; d C C a a Z.D.I.F.F. X|.%.&.$X&X'.dX[.i.].B.aX8X1XM.8X7Xl.1X2X4X1X",
"0.1Xe.J h.1X5.0.e.e.n.n.M.i.`.-._.|.$X@XXXF.D.D.S.8 8 a 8 1 7 i C c a 9 c B } F.D.F.|.{.K.P.@X@X].dX[.n.aXC.x.8X4X8XqXk.1XwXj.e.",
"l.j.l.>Xj.m.^ l.b.r.e.dXg._ ].=.{.OX@XL.J.Y.[ A.C < 8 1 9 9 , h n c a u a C N Z.S.F.I.XXK.D.) ..Y ..[.[.dX[.M.uX5X3X8X1X1X4Xe.o.",
"j.j.;X:.1Xm.0.c.M.M.q.i.i.X.X.=.&.*.E._ ` A.C c a h 0 9 b h 8 8 a c a u u a C n b S.D.F.| x 6 k | [ y.aXaXf.].8X6Xl.5Xl.1XqXm.b.",
"5.;.z.iXm.G l.b.b.b.X.-.( .._ X.%.x U ] [ ` h 9 c h q h a a 0 2 1 a h u u p u c C N Z.D.l l ' I..X#XP.t.r.f.6XN.8X5Xe.8XlX6.m.m.",
"8.8.cXVX1XJ w.c.j.e.i.O.I D y U T ) x z z w 9 6 q a 0 q 7 1 8 1 * 1 u u u s u c n c D.l l ' A.Y.D.P.OX&.] B.C.y.V.V.M.M.4X8X1Xe.",
"8.:Xc.(.<.j.j.v.r.o.q.Y _ [ [ ) I E U j q ; i i 7 8 2 = 2 2 2 ; * $ : u u s s n N N a p B } ` ` J.$X@XOXP.*.B.C.aXpX6XM.jXBXBX1X",
"<.8.:.:.l.,Xl.,.o.Q y _ |.OX|.J.).d 6 6 4 f z d 8 % % & % & & & $ $ + 1 s s u s M p < N B M B ` U.CX%X'.].W.f.B.aXfX8XsXtXvXVX3X",
"G >.F W 2.k.h./ / D z ) [ }.P.Y.S.c 9 9 f v h 8 = = % % % + # + $ + . + < r > s s - p N b k M } U.CXzX`.*X*XkXd.6XsXeXzXSX/.5.3X",
"cXmX:.<.<.1.>.z.Q f =.) S.=XXXI.D.A.S.` C d w & o = # o o o . . o X . + > r r , < u p c v n '  .W.~.!.].^.B.*X].6XqXeXCXSXlX8.8.",
"cXNX3.2.<.2.z.h.e _ OX&.}.U.U.oXS.S.' b d d 8 % o o O O X .     . . . $ > m m < < u s l n l ` %.P.-._.&X`.B.&XB.pX9.n.BXSXzX8.k.",
"h.:X<X>.>.:Xv.W L P.|.}.}.|.I.Y.S.A.` v a a 2 o o O . .           . . $ > , r B M , u n l x ) %.=.P.@X@Xf.d.^.].sXp.[.nXvX/.j.l.",
"8.k.>Xh.<.v.:XW H.W.}.P.{..X}.J.Y.A.R v a w ;   .                   . $ - > s B V < t M k x { { | &.s.*.W.!.*X[.V.C.M.M.1X1X3Xl.",
"l.6.K h.u.Q z.1.#.+XoX}.|..X}.{.D.' b v d i * . O .                 . > , < n M B r p ' x M ) [ [ [ %.@.=.+X&X].].sXC.q.2X3Xl.7X",
"k.;.<.z.8.h.1./ a.].'.|.|.#X.XK.D.` ` h d i ; o . O                   $ < r m B } t u B B n s b A.| =.OXOXoXW.+XkXaXC.C.O.q.m.3X",
"e.0.k.:X1X;XS E d.a.}.OX@X|..X XD.D.Z.b i 0 7 .   O                 . + - < , M s , r s s n n C ' K.}.|.oXoX&X&XkX8XC.8Xe.T l.v.",
"m.8.iXnXc.(.iXu.#.*.oXoX#X X{.{.F.A.' ` v j 0 +         O             # $ $ - , s t < r t s n B | {.{.|.oXP.+X*Xd.sXC.q.j.q.m.0.",
"w.8.mXAXH.MXVX^ #.H.J.{.{..X.XK.K. XD.' ` c 3 & o                   X # < , r < M } s , s N N B } K.{.}.P.K.+X!.V.B.V.M.V.b.3Xm.",
"w.6.(.R.K (.R.Q r.$.J. X.X.X.X XK.} } n p u , - + X + X .           . # , r s s t M n s s l B B } } K.}.{.OX&Xa.C.a.b.6XM.j.c.m.",
"m.o.7.:.w.R.xXu.A S.J.U.XX|..X.X.XV r < k ` b h 3 & + * & @ X + X X # : < < s l m u s N N M N } {.B V |. .W.E.Q.6Xb.b.c.1Xm.m.c.",
"e.0.j.8.:.xXMX>.Z R J.P.oX X X.XXXB N | F.[ b x c 6 % & - : 4 ; $ * > < < , , t s t t s M B B F.} B ) U A.E.!.kX6XM.M.1X6Xm.m.l.",
"8.b.w.;.h.<.T.F P v R ] P.$X%X#XK.F.XXK.' ' ` x N u * * ; : 5 6 1 : , < < < : , < , , u N B F.F.B x  .=.$X^.6XfX5X2XM.w.l.4Xj.2X",
"w.1Xj.h.l.:.4.z.$.f z d y @.@.) | .X{.{.F.} S.} S.f i i : ; 4 5 , u r 5 - < t < , > > r M ' &.F.` | I.@X^.d.6X9X8X4X4X1X2XfXqXm.",
"M.m.l.6.h.1X<.c.R.I x U z _ T X.{.|.K.F.F.| F.D.` ` N c 9 ; > 4 9 5 4 > , 5 < r s < < l m , m { K.OXW.E.^.C.lX5X1X5Xj.1Xj.5XqXl.",
"l.6.w.1X>Xk.x.y.w.1.$.*.0.r.0.i.'.OX|.F.K.F.F.} ' D.b a h 9 ; 4 5 5 - - r u u p p l t s V m p &.|.P.J.H.V.tXc.V.l.qX5X>Xe.c.8X1X",
"j.1XM.>X7Xk.7Xx.Y / z.y.h.q.#...X.P.|.XX{.{.F.F.D.' ` b c i ; > 6 , : 4 5 i a p u B x m {  .| &.U.L.L.~.y.V.c.qX8X>XuX9Xm.k.>X5.",
"e.4Xm.5.3X0X>Xe.r.w.0.w.w...O.! I I K.|.{.XX{.F.| D.D.N d i 4 5 4 - 5 f u i u u M ' | k ) ) [ T T L.+X/.y.o.3XwX1Xh.3XqX>Xj.l.>X",
"m.l.6.8.3Xl.h.h.3XV.0.x.q.p.q...Y I J.XX{.{. XF.F.K.D.n c z i : * > 6 0 9 i p v ` ' ) g { _ I Y L _ *.0.w.x.8X7Xk.m.wX>X6.3XwXj.",
"j.e.1Xm.l.j.e.k.w.e.p.t.y.M.q.U Y y ] D.}.U.|.XXK.K.A.` N ` i , : 5 i 9 i f k z U %.[ g U T I Y L I u.y.e.0Xc.v.wXqX<X>Xh.>X8.G ",
"e.1X4Xm.l.1Xh.l.e.e.1Xc.e.N.y.! T T @.@.G.J. .K.D. .D.` ` n l u 4 k c f j c z U ) *.+.z A ! ! / r.y.l.z.x.3Xv.7XwXl.3X1Xk.l.0Xw.",
"J 3Xm.6.l.8.j.l.1X1Xe.$.q.d.j.o.T / Y G.A.[ G.J.| J.| ` R ` M p 5 x R v b R b ) ..L y U ^ 1.1.,.y.V.V.h.7X,X^ <X,Xk.l.k.1X>X1Xk.",
"j.j.1X1X5.j.qXj.w.m.b.e.V.n.N...$.^ g _ ] R R ] G.A.J.D.` x x l k f c R R U T ..Y y L $.q.a.y.j.V.^.N.lXqXw.v.5X,X3X0.k.gXj.h.1X",
"9X8.5.j.e.6.k.l.l.k.6X8XM.e.N.V.q.^ Y T ! ] @.S.A.A.J.J.D.c f U x i 6 g g I _ L Y a.O.y.y.a.q.r.N.rXV.E.u.0.0X5Xe.l.l.w.h.4X3Xl.",
"j.>X8.h.1X6.w.3Xk.m.2Xj.m.p.b.V.^ Q t.Q.E.+.G.G.A.` +.J.A.[ S.A.] x d g +.a...I X.t.y.e.$.y.^.kXQ.^.8XN...q.5Xm.5X3X1X,.J 9X1Xl.",
"h.h.w.k.7X0X4X:Xw.l.3XM.b.m.e.e.e.u.E.Q.^.H.G.H.G.G.G.L.J.L.H.H.a.G.` I ..o.$.*.q.! Y f.B.d.kXkX8X1X8XV.e.o.V.w.w.3X9X4X8Xj.j.k.",
"8.<.1.e.k.0XwX6.h.m.k.k.m.1X8.e.h.r.t.t.d.y.E.[ J.L.U.J.J.J.[ H.@.H.J.G.Q A T a.d.0.! a.B.B.x.x.e.w.v.m.V.y.0.0.o.J 1X9X9Xj.j.1X",
"k.4.j.z.w.k.2.k.>X6.j.3Xj.l.m.0.w.^ x.^.d.N./.Q.E.E.~.J.L.E.L.G.H.L.~.t.! I $.t.O.e.y.g.^.b.V.c.u.r.6XqXM.8XV.w.1Xb.j.m.8.1X1X,.",
"9Xh.:Xh.<.8.k.qXl.;.6XgX6.m.m.w.c.j.6XtXy././.t.Q.H.L.E.H.H.E.#.E.!.^.z.r.d.V.f.d.*XN.6X6X5XtX8X5X6XwXlXV.e.4X1X5X5Xc.1Xl.wX,X;.",
":X0X>X;.k.1Xl.>Xj.j.e.5.l.8Xb.1Xb.e.6XV.x.y.E.t.Q.Q.E.E.~.L.@.E.^.^.q.o.y.5XV.d.rX/.M.6XN.6X8XuX5Xm.2X4Xl.M.m.gX8X5.j.4X,Xl.6.k.",
"6.3X1Xj.l.3XqXj.l.8.8.M.fXj.e.6Xt.j.V.m.j.^ d.V.V.t.R.E.a.E.L.Q./.V.^ N.6X1Xc.tX6Xe.6XV.y.4X5X1Xw.j.1Xm.q.e.2X2X3Xm.l.1XwXh.h.:X",
"h.w.6.l.0.0.3X1Xm.m.2X1X9.e.c.j.e.M.e.e.X.r.e.e.x.V.E.#.@.Q.^.E.d.6XV.V.1X8X5X6X5Xx.b.N.6Xc.l.w.0.c.j.8.M.6X1X5.w.j.l.^ 8.0X<Xk.",
"6.w.j.l.w.H 8.b.5.1Xm.7.e.m.m.b.5.q.q.e.V.N.w.w.q.tX/./.~./.rXN.a.V.x.k.1X5Xm.j.l.rX5Xb.h.e.k.5XV.j.m.q.m.1Xb.q.M.m.8.,.4.:Xk.k.",
"1X3X9X1X3Xm.D ( 2X2X( q.2Xm.e.2Xe.q.m.b.V.8X5Xe.j.6XN.yXlXlXV.rXtXu.O.o.>Xc.e.3X4Xc.5X1X8.1X1Xj.3X4Xm.m.b.m.j.6.4XqX8X<X<.F h.0X",
"w.j.l.3X2Xj.o.e.1Xq.T ( 2XM.5.M.p.H 8.M.q.j.w.w.6XM.j.j.6X1XV.6X6XN...u.l.j.e.5XfXe.m.1Xo.j.1X0.m.1X5.1X1Xb.2Xm.1X3XwX:.F h.<X2.",
"l.e.8.1X( o.2X2Xp.5.b.2XsXp.H e.2X( j.2Xm.j.e.m.qXM.M.m.6.b.fXe.0.k.e.4X1Xl.1X9X3XH j.4Xj.j.1Xm.4X8X2X4XM.H 1XfX8.j.h.J k.wX:X~ ",
"1X8.e.0.6.9.e.( 9.j.p.( q.b.q.7.b.2Xm.5.m.fX4X1X4X6.j.j.1XM.e.0.k.l.^ 1X3X1Xk.j.m.e.j.8.1X4Xj.l.4XfX1XpXo.T l.m.6.e.l.,X<X3.>.F "
};
