/* XPM */
static char *_bacfad8ed7a425ed58ebe12ba592273Vnwog84LVXSjRQLT[] = {
/* columns rows colors chars-per-pixel */
"64 64 254 2 ",
"   c #000000",
".  c #09090A",
"X  c #110B06",
"o  c #090C13",
"O  c #121311",
"+  c #161516",
"@  c #1A1A1C",
"#  c #241C19",
"$  c #301915",
"%  c #2A231A",
"&  c #362818",
"*  c #353118",
"=  c #0A1328",
"-  c #132637",
";  c #1A2830",
":  c #282827",
">  c #352C25",
",  c #3A322C",
"<  c #282C31",
"1  c #363737",
"2  c #4F2616",
"3  c #4E2D13",
"4  c #6E380D",
"5  c #473829",
"6  c #573C2B",
"7  c #463D34",
"8  c #3E433A",
"9  c #535115",
"0  c #577614",
"q  c #677D1D",
"w  c #57432C",
"e  c #4C4338",
"r  c #53463D",
"t  c #58483A",
"y  c #694F35",
"u  c #5B7521",
"i  c #6C742B",
"p  c #02114C",
"a  c #0B2B52",
"s  c #3A3D42",
"d  c #021567",
"f  c #000F72",
"g  c #002B6C",
"h  c #3E4146",
"j  c #1A5163",
"k  c #005175",
"l  c #474647",
"z  c #544B43",
"x  c #5C4E42",
"c  c #55524C",
"v  c #575858",
"b  c #635245",
"n  c #685947",
"m  c #645549",
"M  c #6B5B4D",
"N  c #6C594F",
"B  c #745D4D",
"V  c #6A5C52",
"C  c #5A6448",
"Z  c #7A674D",
"A  c #6F6D51",
"S  c #766556",
"D  c #7D6A5B",
"F  c #5C5D61",
"G  c #5D636B",
"H  c #67696C",
"J  c #70726F",
"K  c #787677",
"L  c #913700",
"P  c #904D0D",
"I  c #9E6532",
"U  c #906B35",
"Y  c #886948",
"T  c #91754F",
"R  c #856A56",
"E  c #816D5D",
"W  c #A77552",
"Q  c #857263",
"!  c #8B7867",
"~  c #847669",
"^  c #927D6C",
"/  c #5F851A",
"(  c #6B8D0F",
")  c #66861B",
"_  c #6C8C1D",
"`  c #758B1A",
"'  c #728D1D",
"]  c #6D921C",
"[  c #77961A",
"{  c #74941D",
"}  c #759A1C",
"|  c #7B9B1D",
" . c #7DA51A",
".. c #7CA31D",
"X. c #6B8524",
"o. c #688627",
"O. c #6C8C23",
"+. c #738626",
"@. c #738D23",
"#. c #728C2A",
"$. c #7B8E2C",
"%. c #6E9222",
"&. c #6E9428",
"*. c #749323",
"=. c #7B9524",
"-. c #769A24",
";. c #7C9C24",
":. c #74932B",
">. c #7B942B",
",. c #759B2A",
"<. c #7D9B2B",
"1. c #6B8131",
"2. c #778832",
"3. c #769633",
"4. c #7D9432",
"5. c #7C9B32",
"6. c #7DA224",
"7. c #7CA827",
"8. c #7DA22B",
"9. c #7DA231",
"0. c #7EA633",
"q. c #7D8151",
"w. c #81A41E",
"e. c #85AB1D",
"r. c #86B11C",
"t. c #858F27",
"y. c #839626",
"u. c #829D25",
"i. c #83952C",
"p. c #839C2B",
"a. c #8A9E2C",
"s. c #838C36",
"d. c #839532",
"f. c #839C32",
"g. c #8B9D32",
"h. c #879839",
"j. c #929D37",
"k. c #A39E27",
"l. c #83A325",
"z. c #89A425",
"x. c #84AA24",
"c. c #8BAB24",
"v. c #84A32B",
"b. c #8BA42C",
"n. c #85AA2B",
"m. c #8CAB2C",
"M. c #92A62B",
"N. c #92AC2C",
"B. c #8CB325",
"V. c #88B329",
"C. c #8DB22C",
"Z. c #93B32C",
"A. c #96B829",
"S. c #84A433",
"D. c #8BA433",
"F. c #85AA32",
"G. c #8CAA33",
"H. c #85A43A",
"J. c #8BA63A",
"K. c #93A534",
"L. c #93AB33",
"P. c #9AAC35",
"I. c #95A93B",
"U. c #9AAC3B",
"Y. c #8BB232",
"T. c #8CB437",
"R. c #94B333",
"E. c #9AB434",
"W. c #99BA34",
"Q. c #94B13B",
"!. c #9BB33B",
"~. c #A2AC3A",
"^. c #A4B739",
"/. c #9AC135",
"(. c #A5C731",
"). c #8E954A",
"_. c #AE8759",
"`. c #8BA641",
"'. c #95A844",
"]. c #9BB442",
"[. c #ACAD49",
"{. c #998569",
"}. c #9A8575",
"|. c #928E71",
" X c #AD8D6B",
".X c #A48D7A",
"XX c #AA937B",
"oX c #B4AD74",
"OX c #C68E56",
"+X c #D7A350",
"@X c #CEAB74",
"#X c #F2B470",
"$X c #D9D65D",
"%X c #FAC67C",
"&X c #FAF669",
"*X c #001A8E",
"=X c #002A8F",
"-X c #001AA5",
";X c #002EA7",
":X c #00498B",
">X c #006A94",
",X c #0057A9",
"<X c #0050B3",
"1X c #016EB6",
"2X c #0058C0",
"3X c #0068C7",
"4X c #0178C5",
"5X c #007CD0",
"6X c #008FB2",
"7X c #7E8288",
"8X c #028ED1",
"9X c #01A7D9",
"0X c #01B6DE",
"qX c #0093E2",
"wX c #01B1EA",
"eX c #00CFF7",
"rX c #00EEFF",
"tX c #8C8E92",
"yX c #A79A8E",
"uX c #B59B86",
"iX c #BBA28A",
"pX c #B2AC91",
"aX c #969CA6",
"sX c #9DA4A8",
"dX c #AEB0B0",
"fX c #C19F83",
"gX c #CCAF8D",
"hX c #C1BBB4",
"jX c #BDC0B2",
"kX c #D6CD8E",
"lX c #E3C88F",
"zX c #FDCC87",
"xX c #FFD98C",
"cX c #FED895",
"vX c #FBEC8D",
"bX c #FEEA99",
"nX c #D8D5AE",
"mX c #F3D7A9",
"MX c #FEE4A7",
"NX c #FEF8AA",
"BX c #EDEBB7",
"VX c #FFE7B5",
"CX c #FFFBB7",
"ZX c #D2D2CF",
"AX c #FCEBC0",
"SX c #E7F0CA",
"DX c #FCFAC7",
"FX c #FEFFD7",
"GX c #D8DFE7",
"HX c #E6E7E7",
"JX c #EDF1EC",
"KX c #FFFFE6",
"LX c #F7F9F5",
"PX c #FFFFFE",
/* pixels */
"v...l.<.y.u.i.a.Z.m.>.>.l.N.p.b.C.l.m.i.P.a.;.z.z.z.E.M.8.v.h.h.v.<.m.6.w.x.C.u.:.v.{ D.n.a.E.[ ..G.i.D.E.n.N.b.A.w.) 5.R.A.F.8.",
"<.D.G.h.i y.[.~.c.W.d.y.n.A.c.[ v.D.| u.s.s.} l.p.$.=.a.4.i 4.h.<.v.C.;.p.y.n.x.l.=.u.p.e.z.N.c.' z.m.R.E.c.L.{ ] { -.X.D.x.8.8.",
"b.g.D.$.i ).L.A.c.i.g.N.z.K.m.a.a.e.w.c.p.2.:.p.<.5.f.j.h.2.v.f.X.<.6.G.h.O.:.:.{ K.4.:.i.<.b.m.u.i.P.Z.l.d.*.x.=.%.V.;.l.6.l.L.",
"i.v.Z.L.2.).(.A.| =.M.B.| g.D.v.u.| x.v.p.i.u.D.v.v.N.L.z.<.n.m.f.=._ n.Y.5.'.`.u m.<.#.L.<.#.<.l.$.'.u.7...{ Z.A.6.8.] &.C.>.+.",
"+.D.R.v.u b.E.^.a.' l.v.p.v.;.@.b.=.p.~.K.L.u.<.p.b.<.x.| *.aXF h h l H aX0.A.].0.q.V.3.5.p.$.v.y.=.p.p.<.C.e.u.R.C.l.-.-.6.4.=.",
"l.L.a.1.y.x.D.L.{ *.n.p.;.f.p.*.p.n.p.K.g.R.<.p.y.<.S.<.sX@ # w S E S 7 % : 7X9.0.&.,.&.3.T.b.v.i.I.M.E.<.<.L.L.m.J.l.c.n._ B.B.",
"v.n.m.p.v.=.I.n.{ n.<.l.l.i d.E.u.g.p.p.=.m.F.d.F.*.5.7X  b uXiXuXuXuXgXgX~ O h 3.u 3.o.9.`.-.<.d.b.p.n.[ | f.F.7.G.l.N.N.<.m.N.",
":.G.m.n.7.w.@.*.l.F.>.$.2.a.d.J.D.d.g.L.n.l.D.5.H.F.H   ! uX}.}.}..X.X.XyXgXgX  F ,.o.3.T.8.7.G.l.l.| l.z.l.8.0.F.8.L.G.=.u.J.b.",
"K.@.-.x.x.c.} v...*.<.d.T h.{ i.O.S.D.S.W.J <         ! .X! ^ }.^ ! ^ ^ .X.XfXuX  p.q 3.T.9.&.5.v.-.m.R.3.3.].G.&.v.R.f.+.~.M.+.",
").' =.-.y.K.(.A.l.<.b.K.j.a.-.>.d.p.v.8.+     + + o M }.~ ! ! E Q .XyX.X^ ^ .XgXD . 9.u 6.T.3.o.n.8.8.F.3.o.F.:.#.n.c.M.M.M.E.a.",
"u.l.@.:.Z.u.p.m.c.z.i.$.2.i.<.<.U.G.A.    @ @ @ o : ! E E ~ S }.ZXLXLXJXhXQ ^ .XgX% l &.] 7.].<.{ -.&.F.D.O.8.F.L.b.>.v.u...v.6.",
"b.W.:.<.l.x.:.8.l.b.=.4.:.8.g.L.V.Y.    @ @ @ + o t ! D E N ~ PXPXPXLXPXPXhXQ .XyXyX  T.&.T.n.X.o.l.-.<.<.C.<.Q.I.'.J.Q.b.m.<.<.",
"V.8.) u *.x.<.+.i N.p.u.8.%.-.v.<.1   @ @ @ @ o : M D S D y ZXPXhXHXPXhXZXPX}.! ^ uXN . 5.F.S.#.0.H.H.G.F.F.S.i.v.6.F.f.H.4.q v.",
"D.8.8.) v.l.x.=.) | <.<.l.<.<.,.p.  + @ + @ o @ 5 V N N N n PXdX  F GX  + LXpXE ^ }.uX$ s -.L.K.S.G.G.Y.n.b.m.{ x.x.| *.#.#.:.S.",
"H.5.%.] l.c.U.K.` @.:.=.7.x.8.5.G   @ @ + o : 5 7 M V V M t ZXGX  K HX1 v JX^ ! ^ ^ }.yXO l D.M...tXv : . v l.u.} -.;.#.O.,.l.f.",
"f.Q.-.O.<.7.p.U.v._ @.R.;.*.:.G.1   @ o o , r 7 7 m m n M b N HXHXLXPXLXLXyXV ~ ! ^ ^ .X}.# + : # + & n x : 6.6.*.:.5.p.v.l.*.#.",
"+.I.P.[ =.d.v.m.m.| ` b.g.#.f.l.o   o : r m r 7 7 x x b b N 5 ^ PXJXZXLXZX6 E Q Q ~ ! ! ^ D m b M D D ! > h =.5.3.:.m.G.8.v.4.p.",
"d.g.^.A.` p.!.u.G.A.l 1 h h s : o : z V M t t 7 7 z x x x x t S ZXsX}.hXyXb D D D Q ~ ! ^ M z b b m M S   tX:.<.0.;.F.b.*.-.>.f.",
"v.y.L.L.m.G.M.b.:.v.  > # + O > V E D V b x z r 7 e z t x x b b 6 m n b N D S D D D E Q ^ M e z x b S . h <.-.S.l.l.R.v.l.F.#.h.",
"v.<.8.>.'.!.<._ ' =.O E {..X.X^ ! D S N N b x r e e r z x x t 6 6 6 6 6 y n B D Q Q D D ! m 7 r x b   : F.H.#.u.C.;.V.v.:.;.6.D.",
"P.S.5.u.d.U.| 0 ) D.1 # ^ }.}.! Q D S S N m m m b e * $ $ : : - - - a - - @ $ 2 2 y D ! ! b 5 t 5   h | / +.:.8.B.e.*.*.5.) 6.a.",
"m.L.f.<.i.i.| ) 3.'.[.  t .X}.! ~ E D S D S y 5 % @ - a g :X<X1X3X8X8X8X9X9X6X>Xk - $ 2 B m , X   7X7.6.,.:.0.H.n.B.} X.3.8.f.D.",
"8.v.v.v.a.I.z.X.#.4.E.[.  t uX.X^ ! {.! y & = p d =X;X<X3X3X3X1X5X8X9XeXeXeXeXrXrXeX6Xk @ % O l x.e.%.} ] 8.5.O.6.6.<.l.f.U.K...",
"=.l.l.g.b.L.!.H.u 5.l.y.I.+ $ b D ! y > = p f =X=X=X;X,X,X,X1X<X1X6X8X8X9X0X0X0X0X0XrXeX0X= b T.f.:.5.,.;.{ _ *.=.;.v.x.;.=.m.;.",
"4.=.v.y.@.v.L.>.$.5.3.$.n.n.7Xl : @ a p f f d f f =X;X<X2X<X,X1X4X4X8X8X8X8X9X9X9XwX9XwXrXj F.T.2.i.W.v.S.G.6.<.:.v.p.| { _ [ l.",
"v.c.=.#._ 5.>.@.Y.f.>.W.c.| R.a.y.= 1X*Xd d d d *X*Xp a d =X<X5X3X4X5X5X8XqXqXqXwXwXwXwX6X= L.g.U.!.7.f.Y.x.S.5.f.-.n.m.p.#.O.Q.",
"l.m.l.] _ $.F.v.{ v.b.^.P.i.h.J.B.a ,X*Xf *X*X-X-X= y  XY x a g :X,X,X:Xg :X:Xk >X>X>Xj t 7 1.s.^.J.D.p.*.F.G.H.R.y.<.S.>.#.).,.",
"v.=.v.l.l.;.*.v.-.5.b.M.g.A.y.u N.h ,X;X-X*Xf f = y XX! XXXX XY z .   6 D 6 y Y $ X B W _.V ) D.C.v.P.x.<.F.f.n.l.R.v.8.=.5.H._ ",
"z.w.u.b.c...*.l.<.#.>.u.b.W.N.@.| 1 = p = = % w $ < N N S S Q XXfX.XZ B iXFXFXXXn ! .XM & K n.b.8.:.D.K.E.v.<.-.F.J.v.v.$.i.:.u.",
"p.` u.b.b.{ :.5.q X.>.-.n.Q.!.Z. .{ % 4 +X+X#XxX#Xn 7 < > > e x S }.iXXX+ yXpX5 D y V : s ^.!.D.D.:.D.g.M.~.m.>.].g.=.=.{ +.{ p.",
"s.<.=.Z.=...X.J.v._ <.=.u.N.Z.x.R.p.6.3 &XxX#X#XzXbXXXaXtXJ c , , r e M t nXE , z 1 1 H A.^.E./.E._ l...M.U.^.!.b.Z.J.g.N.=.*.i.",
"$.L.u.r.e.| l.-.6.F.6.u.y.c.A.x.l.c.m e 6 OX%X#X#XbX{.GXPXPXPXGXsXO O % D LXR v GXZXv i.A.N.i.!.A.w.P.m.l.z.L.Z.e.B.K.j.N.L.v.;.",
"n.p.N.| x.z.R.l.4.v.{ F.l.a.Z.;. .w #XcXoXY #X#XzXbXOXaXPXPXPXPXsX  dXGX~ KXgXGXPXPXGXH y.m.;.z.N.x.L.g.K.a.| M.z.z.E.N.l.S.J.h.",
"f.z.Z.| <.l.m.B.x.y.z.p.c.l.P.e.] Z CX XW bX+X#X%XxXcXOXyXhXZXHXZXH hXpXgXSXmXgXZXhX7 c M.Z.c.| <.G.w.p.d.d.} w.b.y.>.v.4.i d.J.",
"X.v.c.{ =.{ =.=.=.L.$.=.a.=.l.N.6.c %XNX XMXxX#X%XxXzXxX#X_.W oXiXgX@XcXFXgXnXmXgXnXy 7Xz.K.L.a.a.e.| c.d.2.:.<.l.<.f.j.h.2.p.F.",
"v.=.| =.| | { *.) L.;.O.Q.p.#.v.x.tXy CXCXgXy %X%XxXxXcXzXcXzXxXMXMXVXVXVXnXmXVXVXKXV tX=.M.G.l.z.| n.u.p.<.a.b.l.l.m.L.b.u.m.F.",
"I.D.y.G.N...=.6.{ { R.2.f.N.$.b.l.p.J y kXM o I vXzXxXxXbXcXMXgX{.mXVXMXVXVXAXAXVXLXm sXp.v.;.' m.=.y.~.K.P.u.<.u.y.b.M.-.=.g.D.",
"H.`.<.a.D.<.N.e.[ | p.2.i h.U.l.d.U.E.K z dXE.: I xXvXxXcXcXbXlXoXMXVXVXVXVXVXVXKXmX< <.<.S.<.#.p.m.p.P.K.K.>.5.y.=.y.w.-.>.!.5.",
"p.n.n.:.:.=.Q.A. .-.) o.o.2.D.v.d.N.a.n.} | <.U.< 4 #XNXvXcXcXbXNXcXMXMXVXMXVXLXDXX K 6.n.7.m.E.v.K.i.y.y.a.f.K.a.u.' _ 8.F.] O.",
"h.:.x.p.O.*.W.x.;.8.+.g.F.l.| l.l.e.l.z.=.V.5.>.8.G 5 U #XNXCXNXNXVXVXCXDXFXDXuX% G 3.v.l.g.].W.D.h.g.f.;.;.>.u.`.h.<.v.:.,.%.`.",
"d.2.6.x.:.$.L.c.n.z._ <.c.-.;.l.v.{ G.N.=.' C.;.| N.R.tXK Z _.XXfX@X@XgXpXXXC e sXO.:.7.6.K.m.8.) -.9.#.v.>.+.b.v.h.5.<.:.8.F.].",
"=.,.S.7.<.J.q.<.;.x.l.*.| <.-.7.p.;.;.b.b.8.F.=.>.N.V.N.7X= * q 9 C q.l   5 (./.n.6.8.l.v.u.!.g.+.:.7.n.5.:.p.R.n.5.,.<.J.h.H.v.",
"U.5.H.Y.*.#.2.=.} <.8.=...F.5.,.m.p.j.P.~.J.<.L.!.b.v.t k.).i $XbXKXPXtXL 4 i.V.c.v.v.O.) ,.f.l.!.D.B.0.,.7.| <.5.O.*.n.F.4.2.p.",
"F.H.<.8.<.:.d.l. .} u.;.n.S.Q.S.#.;.a.b.p.+.X.!.W.'.F [.&X).U vXPXdX@ @ {.% K <.m.v.x.8.*.6.b.Z.W.R.<.#.G.b.a.H.!.:.#.O.v.0.J.5.",
"3.9.J.,.n.T.-._ <.@.l.l.>.'.T.x.O.:.-.=.{ =.J.i.c.7XA vX].y &XSX|.P   O JXjXO 8.>.;.&.9.8.-.8.n.l.n.S.v.F.p.b.G.S.;.l.5.F.5.3.q.",
":.O.T.Z.Q.v.) O.m.-.q S.>.v.X.n.8.:.c.*.c.Q.b.[ x.C vX$XA [.kXT L 4 tXSXKXnXA q.:.-.-.-.<.m.*.t.y.B.n.n.Q.p.;.u.O.-.R.D.5.#.u 0.",
":.S.<.*.5.D.:.*.x...:.#.#.<.*.*.&.;.| X.$.F.l.6.K q.vX[.C q.P L y dXFXDXSXSXpXq.tX5.O.8.m.G.S.' } W.R.<.@.v.Y.| 6.<.v.<.&.9.S.,.",
"V.Y.3.X.,.G.v.l.G.6.9.:.) =.v.8.*.} X.<.<.<.b.l.J NX&X$X6 P 4 T BXDXBXBXAXFXq.kXA 5 U 8.v.v.v.V.F.S.^.z.p.F.v...8.v.v.8.,.,.:.S.",
"&.S.<.4.3.h.7.#.-.) 9.Q.8.{ 6.&.@.[ ;.x.<.l.` } % D 2.* 3 I oXFXFXDXDXCXCXPX}.[.Y w NXU b.R./.L.2.i.D.D.Q.8.-.p.:.Y.Y.8.8.F.v.8.",
"&.<.a.L.h.2.S.*.] ) u ) %.{ ] =.) _ l.) p.Z.@.7 ).Y R _.w 8 ).A A A A F F J e ).W T #X3 E.J.^.m.=.=.<.D.Q.n.O.d.h.F.*.z.K.D./.l.",
"6.6.V.x.-.+.#.8.6.%.,.} ..] } l.,.*.p.*.-.p.R.U NXbXbXCX_.              O     7 OX%X3 ; <.t.y.-.6.8.p.=.i.p.;.#.h.v.8.l.N.l.R.7.",
"x.6.x.-.;.7.*.v. .} ,.-.A.{ ) m.H.*.*.b.l.@.p.4 bXxXzXbXT   . X X X : : :   @ J _.U   Y.N.` ;.B.l.v.S.<.u.i.p.X.*.n.V.7.-.f.C.x.",
"8.v.-.S.F.B.v.D.G.l.} 0 ) ;.] :.-.*.-.[ M.#.@.l 4 OXW 4 t J , M V y e l @ v.S.K.aX~ I.c.P.E.C./.m.' u.i.L.C.&.:.Y.C.r.7.O.5.n.} ",
"7.n.5.G.U.W.x.#.K.m.n.) O.<.| 0 6.*.` | f.l.6.;.G b V F 3.S.c R e K J t 5 h.2.R.B.*.O.v.P.C.6.<.+.-.<.' p.n.8.,.3.x.r.7.<...V.*.",
"B.E.v.-.>.m.;.+.l.N.v.D...0 )  .} *._ z.c... .-.<.=.<.<.S.[.> M % PXdX7 5 $.z.7.f.v.;.p.Z.| | { :.9.#.-.O.X.%.,.:.4.n.C.;.%.x.l.",
"z.I.n.n.m.| 6.b.D.W.] | | ( r.A.) ,.c.[  .} B.:.1.<.n.x.=.H       s %     O :.<.;.+.n.D.p.6..._ ;.l.:.#.O.p.@.<.f.X.<.V.-.F.l.-.",
"8.v.<.E.R.c.7.8.G.Z.;.=.O.e.A.} X.b.Z.@.z.(.8.O.#.p.<.{ ] 8 5 e :     # e . : -.| O.l.=.=.p.K.L.6.| _ 5.0.b.D.m.&.O.5.7.x.n.6.6.",
"n.v.N.Z.;.D.+.} B.Y.Q.L...6.G.K.;.u.X.*.c.z.8.v.6.;.z.R.S.r Z ! ,     O S       } 6.O.<.B.n.s.D.V.Z.:.f.].f.b.-.%.3.-.8.F.:.6.n.",
"v.x.B.K.!.v.l.l.l.v.c.A.y.v.>.s./.,.0 [ [ ) [ m.W.y.y.D.s.v , l : + X @ , O X + A.l. ...| z.f.*.g.D.G.U.I.U.z.| -.#.$.A.*.,.m.m.",
"V.-.p.U.A.e.x.Y.{ { ..x.M.>.O.b.C.y.c. .( [ ] } z.A.| @.@.d.J.:.z.l.f.O.} e.c.-.l.l.B.c.+.l.=.u.b.=.b.D.b.<.W.r._ O.@.n.v.c.u.8.",
"8.=.a.c.;.c.7.v.c.x.l.x.M.` z.b.7.:.K.K.R.c.-.*.b.D.l.v.=.d.#.=.A.e.{ i.m.w.w.[ *.:.>.y.M.Z.N.=.l.7.{ ' v.l.r.n.$.v.l.:.D.b.v.<.",
"a.e.v.l.=.G.C.-.<.p.v.L.b.E.E.b.b.:.b.g.N.U.m.-.I.f.u.6.{ +.@.p.y.y.e.y.v.| | :.q O.:.:.v.Q.U.N. .*.{ c.v.I.c.J.K.6.=.*.=.S.T.<.",
"N.c.=.m.N.l.a.w.q h.2.d.A.^.L.W.R._ l.| N.~.^.I.l.N.D.i.b.=.*.$.s.>.| c.[ | &.J.6._ *.=.u.N.Z.z.L.u.6...u.P.~.r.m.M.b.:./ Y.x.{ ",
"l.a.N.A.b.R.` N.N.5.f.>.Z.c.g.Q.Z.| L.b.u.p.N.E.e.l.a.j.b.m.<.=.i.D.w.c.e.} <.<.l.n.6.l.y.c.B.V.l.n.m.;.m.w.l.R.L.z.x.<.*.<.V.C."
};
