/* XPM */
static char *result[] = {
/* columns rows colors chars-per-pixel */
"64 64 255 2 ",
"   c #131517",
".  c #2F150C",
"X  c #3C271A",
"o  c #50140B",
"O  c #58180B",
"+  c #6E130A",
"@  c #681A0B",
"#  c #771B0A",
"$  c #4B2718",
"%  c #582416",
"&  c #51341B",
"*  c #6A230E",
"=  c #7A230E",
"-  c #682715",
";  c #732513",
":  c #792A15",
">  c #6A351B",
",  c #77361B",
"<  c #7D331A",
"1  c #4C3B26",
"2  c #593724",
"3  c #693B25",
"4  c #753A25",
"5  c #7B411F",
"6  c #5A4427",
"7  c #594E36",
"8  c #6B4729",
"9  c #784729",
"0  c #75522B",
"q  c #6A4933",
"w  c #764C33",
"e  c #6D5636",
"r  c #785937",
"t  c #7B653A",
"y  c #705B42",
"u  c #7B6847",
"i  c #747052",
"p  c #891A07",
"a  c #85160B",
"s  c #961A05",
"d  c #A51B02",
"f  c #B01F00",
"g  c #88250C",
"h  c #94240D",
"j  c #9B240C",
"k  c #98290B",
"l  c #9B310C",
"z  c #892715",
"x  c #832B15",
"c  c #8C2B13",
"v  c #962B16",
"b  c #942C14",
"n  c #9D2D13",
"m  c #85341A",
"M  c #893618",
"N  c #8B3B1C",
"B  c #943314",
"V  c #9C3314",
"C  c #9B3912",
"Z  c #94341B",
"A  c #9B361A",
"S  c #933B1C",
"D  c #9B3C1A",
"F  c #A6280A",
"G  c #B82B06",
"H  c #AA350C",
"J  c #B4340C",
"K  c #B9370B",
"L  c #A32D13",
"P  c #AA2D13",
"I  c #B22E10",
"U  c #A43414",
"Y  c #AB3314",
"T  c #A43B14",
"R  c #AB3A16",
"E  c #A3351A",
"W  c #A33C1B",
"Q  c #AC3D1B",
"!  c #B43413",
"~  c #B33B14",
"^  c #BB3B13",
"/  c #BA3916",
"(  c #B43B1A",
")  c #873C22",
"_  c #983D21",
"`  c #AA3D21",
"'  c #C7310B",
"]  c #C63809",
"[  c #D53805",
"{  c #C43C15",
"}  c #87431D",
"|  c #94421C",
" . c #9C431C",
".. c #AB400D",
"X. c #BC440B",
"o. c #A5431C",
"O. c #AA4718",
"+. c #AC431C",
"@. c #B54717",
"#. c #BC4414",
"$. c #B4441B",
"%. c #BC441C",
"&. c #BC4B1C",
"*. c #B9551D",
"=. c #884827",
"-. c #994726",
";. c #944A25",
":. c #8A542B",
">. c #99572B",
",. c #864C32",
"<. c #944D30",
"1. c #885836",
"2. c #965835",
"3. c #9B5D34",
"4. c #A64824",
"5. c #AC4C24",
"6. c #B84823",
"7. c #A85529",
"8. c #A55A2D",
"9. c #B35424",
"0. c #BB5A24",
"q. c #B75828",
"w. c #A24B32",
"e. c #A65C34",
"r. c #B65C34",
"t. c #84643B",
"y. c #8A6439",
"u. c #8B6C3D",
"i. c #94633C",
"p. c #9C653B",
"a. c #976939",
"s. c #9B6C39",
"d. c #A8642D",
"f. c #B9652B",
"g. c #AC6534",
"h. c #A86738",
"j. c #A36B3B",
"k. c #B76837",
"l. c #A8743D",
"z. c #B7763A",
"x. c #CA450C",
"c. c #D4480B",
"v. c #DB550C",
"b. c #C44312",
"n. c #C94815",
"m. c #CC4B14",
"M. c #C3441B",
"N. c #C34B1B",
"B. c #D74A15",
"V. c #C7551A",
"C. c #CC541B",
"Z. c #CC5B1D",
"A. c #D3541B",
"S. c #D75819",
"D. c #E65013",
"F. c #CC691D",
"G. c #D8641C",
"H. c #E5641C",
"J. c #F56918",
"K. c #C54B22",
"L. c #C65925",
"P. c #D45C23",
"I. c #C85E30",
"U. c #E45C24",
"Y. c #C86528",
"T. c #D76725",
"R. c #DA7329",
"E. c #C66935",
"W. c #DA6D37",
"Q. c #C67639",
"!. c #D47938",
"~. c #E66A25",
"^. c #E8762A",
"/. c #E47A32",
"(. c #855D42",
"). c #955E43",
"_. c #876846",
"`. c #8C6D42",
"'. c #966745",
"]. c #936C42",
"[. c #9A6C43",
"{. c #8A7549",
"}. c #957444",
"|. c #9C7344",
" X c #987648",
".X c #947C4C",
"XX c #9D7C4B",
"oX c #866952",
"OX c #966E52",
"+X c #8A7754",
"@X c #957A55",
"#X c #A86B47",
"$X c #B66E44",
"%X c #A47343",
"&X c #AA7547",
"*X c #A47A45",
"=X c #A47C4B",
"-X c #AC7C4B",
";X c #B77946",
":X c #A67C54",
">X c #B67A51",
",X c #877761",
"<X c #C67B46",
"1X c #D37B45",
"2X c #E88B31",
"3X c #9B824C",
"4X c #8B8158",
"5X c #9B8354",
"6X c #998659",
"7X c #9D925E",
"8X c #A6844C",
"9X c #AC824C",
"0X c #B9844A",
"qX c #A48353",
"wX c #A48A55",
"eX c #AC8B55",
"rX c #A88758",
"tX c #B78A57",
"yX c #A8935B",
"uX c #AC935C",
"iX c #B5945D",
"pX c #BA975C",
"aX c #8F8B68",
"sX c #9C8B65",
"dX c #999467",
"fX c #A78B62",
"gX c #A49463",
"hX c #AD9462",
"jX c #AC9A63",
"kX c #A99B6B",
"lX c #B59866",
"zX c #B5946C",
"xX c #BA9D6B",
"cX c #A89C76",
"vX c #A9A26D",
"bX c #B8A46B",
"nX c #B8A775",
"mX c #B5AD76",
"MX c #C6874A",
"NX c #D68C49",
"BX c #C68A55",
"VX c #C79659",
"CX c #EB9C56",
"ZX c #C69965",
"AX c #CB9B6B",
"SX c #C5A467",
"DX c #C5AA74",
"FX c #CAB57A",
"GX c #D4B275",
"HX c #BAAF85",
"JX c #B8B482",
"KX c #C8B884",
"LX c #D4B384",
"PX c #D0C28C",
"IX c #E3CD91",
/* pixels */
"y.6 & 8 1.].|..X5Xa.|.[.1.u eXiXwXqXlXhX`.r r 0 {.XXwXhXtX=Xu.t.}. X@X5XeX{._.u.5X7X7XhXgXgX@X.X@XlXiX3XkX5X{.4X5XwXuXlXDXrXhXeX",
"c > , _ : m -.}.%XD A n @ t.L.x < g i.tX; 9 m o +Xr.4.S Z ) 4.W _ 5.7.{.E.c -.A '.KX$XZ ) <.w.<.N _ Q (.vXp.4 =.6XbX3.-.2.h.e.8.",
"- $ - , > ) Z ].r # b c - >Xq.g ; + 1.;Xa > : o u -.a Z > - : ; - m Z e 5.k c h 1.OXs h z : * + @ * z 3 t.7.; @ 6XzXO @ @ O @ # ",
", o - * * N  . Xy o = = 3 xX9.# ; : u lX .@ < . y <X+.Z o @ ; ) ; # s 3 7.F I F 1.:Xs E x ; = ; ; ; a % ;.E v : fXzXp a = @ @ = ",
"pXa.u.r r `.rXgX4Xr r @XgXkXgX_._.jXvXJXvXu e 8 HXIXDXZX.XXX XqX[.`.y.4XkXy.:.:.6XJX9X%X`.{..X*X[.|.-XsXxXp.2.t.kXjX;.4.r.2.2.2.",
"rXs.i.=.jXkXr 2.*X{.1.:X=X0 }.vXxXe.>X0X*X0Xl.-X:XzXKXkX&X:X:X1.5XZX0Xl.%Xa.s.l.>XVX7XyXVXtXBXbXkXnXlXGXZXXX[.XXtXpXmXJXSX=XeXSX",
"<.# : + 6XzXo ; : % - ; c W B _.[.# h U B O.9.N @ x 2.1.# a v @ :.b.^ #.X.b.b.X.] @.3 '.Y.~ ' X.6X#XY ` b _ : z x m r.cXAX= , _ ",
"e.. - z u tX+ O - % % o , 9.c 0 p.p b Q N S 4., - - 4 #Xg : m % , ^ b.n.b.m.m.C.m./ < '.D.^ ~ G '.w.h Z : ; - : ; @ + OXzX@ % o ",
"3.  $ : 7 9X> , - > > 3 <.;.: r 9XS -.o.| ;. .- o ; 2.lXD Z x - a.C ~ @.@.@.T Q ~ c.m `.x.K ~ G '.).s L g g g # x -.c 6X<Xa O + ",
"y.1 0 8 7  X*XrXyXXX|.qX5Xt XXwXjXlXbXbXwX3X}.r t.l.xXKXDXxXzXnXDXlXeXyXqX=Xs.0 r l._.uX;Xl.l.>..XgX&X;XtXpX X1.s.lXgXJXKX=X%X].",
"Z 3 :.) $ ) M XXBXw.<._ w d.Y.>.<.,.'.MXk.z.7.u tXf.E.f.#X2.p.3.2.2.y wX2.:.w.3 i |.g.T.e.2.r.>.5.k.k.HXLXBX#X-.`.nX$X<X<XeXVXMX",
"c $ @ : $ - @ ].k.z m _ 3 g.M.: x # 1.P.l A g q e.b @.T x < m @ O ; X 4 s a g * w v g ^ g z P k s k d zX1XF P I 1.zXI F J B E ( ",
"; 6 , * O c + OXk.o.6.6.2 g.n.v R z y I.P V x 9 e.c *.*.m N M < - N 2 (.j c n = ).E # L L h c n L U F fXNXI ( n.XX:XJ Y ^ l g Q ",
"6 7 1 & 2 9 9 hX|.=.:.=.i @X;.) | 8 4X0X8.4 > e 5X=.l.f.=.;.=.: < ; 7 dX=.) b 4 @X-.) Z B x c A U Q B sXtXF L P @XzX6.L.r.-.w.W ",
"[.1 2 sXaX`.:.&Xt.e t.=XZXFXvX{.u }.BX-X|.s.a.XXZXFXkXcXbXjXgXyX.Xy.eXAX%X[.%X=XzXbXFXKXjXqXwXfXhXwX{.fXhXXXrX@X5XbXhXDXjXyX8Xu.",
"6.- x : y ,.+ g x m m -.$.Y.I.8 9 A P n n +.4.V ~ K.].cX!.<X!.;X@Xq.6.6.6.T.T./ W 6.$XzXw.>.k.<.:Xr.Z +.e.r.-X<Xr.5.>.+XQ.Y.f.Q.",
"K.; < # 1.(.O : c c c x m A n 4 ,.n A T E n A m B F ,.%XG ~ B.Q e.{ v n $.F.S.K s F B =.s j j # ).( p / Y z v ! p R W {.NXG %.R.",
"6.x V + oX#X+ : ; : v g a v h 9 :.h L g g n n v l F 4 3.x.! n.Q >.B.I { ( G.H.S.{ G D 2.I P s p OX` a / U a / ! a ! O..XE.' A.S.",
"rX`.].,.4XjX.Xt 0 {.[.(.a.1.9 e _.3.l.j.:.>.8.7.g.8.q u.k.>X<Xy.6XBX<X9.8.d.h.f.O.o.#XmXj.=.2.s.cX:Xj.<X#X3.h.j.<.3.`.dX0X>.3.=.",
";X3.p.9Xh.k.h..X:X#XiX#X5X+X1.|.1.|.mX0Xh.g.3.pXl.>.:.t  XeX0Xz.VXBXjXgXl.u.|.t 4XvX0X9X}.i.qX&Xp.p.rXmXbXjXrXrXvXvXi.:.iXeX9XeX",
"/ A W Q c n d oX#Xd P d 4 OXA v / ) t.^ Y L m [.W U &.N } O.S.m.~ j i.@Xo.L.L.) 1.I.%.{ M.E _ ` g j -.$Xr.w.Z E sX<X! Y R _ 5.4.",
"P._ 4.4.) ` M.9 =.I { ' 2.fX/ B 6.>.1.&.! ( _ 1.| @.N.D S $.&.@.: k ).1.L %.N.-.,.^ ( ( %.Q A 4.A Q _ &XN.# z v [.w.n E A ; < ) ",
"Q S o.S - V n.3 9 U ( { '.cX6.M 4.7.u 5.( Q e.]., 5 @.b M H x.g x G 2.-XA.P.K.'.:X6.` / &.q.k.5.4.4.<.zX6.a c x @X>X+.g = * - 4 ",
".Xt.`.`.t @X[.qX{.> 8 y.`.7 0 t y.0 t e 2 $ t t 0 7 8 e u.s.0X*Xh.d.OXhX&Xu.rXxXDXlXtXtXtXnXhXqXiXxXmXHX'.9 6X3XgXbXXX X X3X+XdX",
"tXQ L.C.).nXI.Y.q.N N 5.7.. 1 >.:.>.>.7.;.> > } , > 6 t k.e.y.j.XXz.7.$Xd.} >.q.8.j.h.wXMXz.z.z.{.zXMX0X3.j.VXh.=.;.-.hXSXY.h.;X",
"4.G K G ) #X! L.%.v E M.W $ 9 M - ~.G.#.0.9.O.N.D _ : N D.n.$. .=.6.*.L.L.6.6.Q V c S 2.S.#.S.m.y [.X.*.: - B c m z n y.z.' ~ m.",
"V [ [ G =.>XK V.K.P P ( o.v M., > ^.G.Z.f.L.T.A.%.&.5 ..D.Z.R.V.4 Y.f.L.I.( 6.6.4.$.D '.~.C.P.G.#X#XH 6.% . % % m B L s.MXc.{ n.",
"=Xq.0.9.j.bX>.7.>.) ) W - } r.> & Y.Y.O. .9.V.@.T *.} 9 #...V.M 2 f.5.c v z z S S ;.;.[.I.o.4.*._.sX7.g.q q 0 8 4 p.h.DXVXN m N ",
"VX`.].%X%XpX}.3X{.u XX*X}.8X3Xr u.{.|..Xu.u.t.r u.t.t {._.`.t.6 {.6Xu w w r w }.|.eXl.tXeXj.:.2.-X;X9XvXVXVXFXbXjXVX|.;X#Xt.u.u.",
"Q 3 , , > 9.3.>.t.l.Y.MXQ.8.{.e.Y.f.k.Q.z.z.k.8.z.s.7.q.g.j.8.S r.<Xy <XW.L.Y.i.9XW.L.L.T.P.6.Z.Z.S.7.8X/.0.Q.r.xXr.U n n ;. .9.",
"_ X . X . =.;. .t.:.f.NX0.-.pXR.T.S.S.A.#.V.T.L.S.:.9 #.N.$.Q 6.&.^ =.g.x.m.b.<.fXN.M.M.^ L L ^ $.S.B >.~.%.C.H rXr.Q E v S O.o.",
"A 8 X . . x M 0.y.i.^.2XC.E.SXR.G.S.S.H.B.S.m.G.H.9 5 ~ Q L F I &.^ (.rX{ / F e.nXM.K { v z &.#.Y A.m :.D.{ H.+.zXr.s h _ B T | ",
"=Xu.r 5XqXrXqX8 e 3X0 :.>.*XvX3Xd.l.d.j.a.:.>.a.:.6 j.s.r 1.8.g.%X>.t.mX*X,.>XiXmXj.3.-XeXwXiX9X%XeX.XyX<X8.MX8X7XuXa.`.1.y.=X3X",
"GX9 1 BX=XcXFX,.>.g.=.9 y.1.>.2.t eXd.d.>.5 {.l.=., >.s.d.h.7XlXf.z.d.:.1.y.XXl.Q.8XdXVXMXMXl.6XSX0X0Xz.;Xh.;Xj.;.0XnXDXf.l.<XXX",
"Q.| ) o.; i k.#.V.( N.K.T T V.#.t yXG.H.G...i z.X.R T V.H.c.+XVXc.T.f.m : : - O.S.O.}.H.A.A.K y.MXH T O. . .@.E n X.r tXH.Y.L.} ",
"h.L.K.$.S +Xq.! N.$.L ~ Y $.C.V.XXgXF.J.G.C 4XVXx.T  .L.S.c.oXtXc.G.R.f.-.=.} 9.G.7.:X~.v.S.] p.0XF o.+.4.5.6.Q W ~ 1.BX#.E./.>.",
"qX9.| D :.i #X| O.D 2.k.W o.9.7.5XlX0.*.&.5 dX0Xg M M | *.H `.SXV.m.T.f.7.;. .@.n.>.5XY.O.7...t.=Xk W @.o. .o.A B T 1.iX5 l.G.=.",
"eXy.y.a. XhXjX3X.X XlXiXqX.X}.8XlXbX}.a.wXgXpX8X Xu.u.u.1.s.DXSXz.9X=X*X#X].}.=XqXhXuXeX6X3X3XwX8X8XlXzXhXwXXX`.uXeXgXSXyXwX8XyX",
"f.0.T.0.0.k.E.1.XXNXz.Q.g.4X0XF.Q.Q.d.d.f.f.0.E.iXeXz.*X>.d.MXj.| wXeX&.*.0.>.cXiX0.2X2XMXf.z.f.0.f.nXFXz.MXz.t.lX!.MXR.!.*.Q.NX",
"T.T.L.L.&.*.G.N u./.f.f.*.`.z.V.*.O.0.V.N.#.N.B.u.z...|  . .B < x 1.g.] m.m.l +X X..R.F.F.*.*.*.+.F rXGXX.*.V.=.a.m.0.Z.*.&.V.n.",
"m.m.m.x.b.#.B.-.@X^.S.C.C.wXtX~ *.O.N  .n.O.T X.XXMXX.O.O. .x < c u tX] H v.H i 9XX.S.S.G.Z.*.*./ G >XZXG Z.Z.q rXc.&.m.V.#.V.#.",
"9X0X&X0X$X;X<X-XkXVXz.$X:.gXmX*Xl.y.r u.l.l.-Xs.yXpXz.h.l.s.:.>.=.{.nX8.a.*.M aXtXr.E.z.z.>.s.7.<.$XKXtX;.3.<.i bXk.d.4.8.7.<.d.",
"VXMX0X0XsXrXz.g.f.j.e.z.:.q.E.5X7X0Xl.z.5XKXFX0Xz.-XkXxX8X0XpXuXp.z.f.z.MXl.j.;Xz.5XcXVXz.0X0 ,XxXSXSXiXyXXX X9X=X*XdXHX9XeXqXkX",
"J.G.Z.J u >.F F F F G K / { [ :.;XF.0.@.N lXR.Z.Z.H OXZXv.G.z.%X#.F.Z.*.Z.Z.V.V.G.M u.2XR.T.p oX!.c.F.Z.T.R.R.Z.#.F +XPX@.5.D q ",
"^.H.~.A.'.w J n.^ F K b.Y J ] 2.VXC.$.@.-.tX~.C.L.m.`.>XB.A.4.>.C.L.L.Z.Y.C.N.V.^.m w 2X^.H.] 1.1Xc.P.R.R.^.F.Z.L.J oXxX..4.c q ",
"S.m.Z.Z.y 1.^ ~ T B B O.C D ^ p.9X5.4.4.=.vX<X$.9.@.y hXn.#.=.].V.L.V.&.N.@.~ #.G.4 e H.G.F.F oXk.' V.S.V.F.F.n.b.G (.AXk g p 7 ",
"&Xj.;.=.t.=Xt. XhX@X_._.sXxX;Xi.2.l.1.0 1..X`._.|.a.8XSXs.y.tXpXeX8X XuX|. XeX[.0 7 qX1.3 p.'..X}.'.1.0 i.=Xs.1.%Xi..X@X:.:.3 i ",
"&.d.5.$.N.o.< }.NXk.T.D @X1Xm.@.Q V.o.D  .g : -Xk.Y.~.Z.f.z.!.P.!.z.oXZXl.k.E._.  > I.) N *.T.S.T.Y.-Xr.r.E.q._.sXY.Y.9.Y.Y.9.0.",
"b.^ @.#.#.b.C (.G.v.G.x.>.f.x.T C T ~ o.C B * tXW.B.S.n.T.T.C.M.S.5.2.B.K G ' %   o.S.#.m.m.m.b.x.D.f.P.' b.[ (.@X[ b.c.{ b.v.b.",
"] K K b.^ [ k _.R.G.c.G | L.J ^ ~ I H l I g + #XU.[ B.D.B.S.B.m.B.0.h.B.I { [ q   k S.#.U ^ x.b.] c.2.P.c.B.[ :XcXG v.c.{ c.v.c.",
"3.h.l.>.3.$X'.cXGXDX$X#XwX0X-.9.;.h.e.2.7.;.8 kXNXE.k.E.k.e.r.k.E.k. X8.4.4.o.e 7 5.Y.<Xz.z.Q.0.G.L.2.r.&.$.H OXaXN I.E.8.7.r.q.",
"mX-X;Xp.aXnX-XiXDXiXrXHXDXl.j.4XqX&XqX'.dX.X2.MXbXbXnXfX[.3.[.gXSXZXxXiXuXrX6XhXlXsXbXjXSXlXuXkXJXtX|.qXsXyX]..XqX%XbXDXwXuXeXgX",
"CXc.] H fX<XX.@.T l D 6.6.O.Y `.>XG K G ) w N.^ O.z.R.&.V ( v ;.C.K.E.6.( 6.( K.n.w.t.} L.q.S (.MXM.#.9.E.I.6.q.0.Y :X1X/ ( ] 2.",
"/.N.V.@.OX<X#.9.} : m +.9.6.V.OX$X' n.B.a 9 q.O.*.f.Y.~ Z O.m ;.A./ { n./ { { ! B.L - 6.K.P.x 1.A.N.P.Y ! J / U $.c oXT.F F G ,.",
"1XI ~ J oX$XG W % o * B Y E J 1.lXm.S.B.m u ^ O.9.O.4.Q j +.: :.B.P { K J ' G J D.g $ b { { -.-XB.{ n.j I { K I B.a i W.f P ' Z ",
"DX*X}.|.sXsXfX:Xu +X+X@X'.rXrXkXnX[.0XeXyXxX0X-Xa.l.dX8X=.=.9 4Xp.[.;X&X;X&X1.p.r.{.u 1.i.).hXFXk.:.e.#Xe.8.>.3.7.0 dX<XW :.6.1.",
"d.0X0X;Xr.h.sXsXNXr.I.Y.=XcXtXk.7.7.h.$Xk.>X;Xe =.<X<Xh.,.4 >.8.>.q.tXAX>X&X2.1.sXVXg.%Xj.l.MX<Xj.e.].6X-X X'._.5X&Xk.3.2.p.t.&X",
"F U O.&.T I @ 2 H.G [ D.e.oXs F @.$.F s h g I o p { ' k # L ! j F d =.q.' K { + 4 K./ 6.M.n.C.' P D.L - ! s ` '.2.P ' I L h z L ",
"z n A 4.V c : _.U.' B.J.-.y n L U o.T s = h.0.- : ' I p p F j j I d e q.B.A.U.b O { K.A./ M.Z.{ P B.E + B.( F '.zX( / / P k L { ",
"XXhX&Xm 4 hXvXkXI.7.q.L.w u $XiX$XFXZXD -.FXFXa.'.5.5.4.-.7.>. .9.e.HXZXK %.N.x 8 5.4.6.4.r.E.q.v L.) 3 K.Q Q zXKXA n U n k U I ",
"iXSX{.X mXIXAX-Xi.}.tX]._.1.+XFXDXFXDX8XeXFXKXbXxXpXpXbXiXwXjXbXjXDXnXxXhXrX=Xe 6XpXiXeX|.hXSXfXsXbXhXmXwXlXFXPXDXlXDXtXiXSXeX`.",
"L Q c 2 g.] #.k c @.@.S b F -.+X} o.;.l oXAX0.8.S ) 3Xj.-.v ;.vX;XO.4.5.j.3.r.q._ 4.%Xj.E 4.6.,.1.8.7.r.w.k.r.5.-.>XKXfXk.#X).2.",
"n Y p w tX^ A * = T D B g j _ +Xm T *.s _.<Xs v c @ i g.s g v q >X~ $.6.( v v 6.L P 8.#XF h P @ 4 ! j P F j P F h s z :XA.! ( L ",
"I L p 8 lXN.# % q * g = @ a W sXD N.&.h :X<Xa g k # xX$Xa a + 4 0XJ / V b n A Y P I <.2.p L j ; @X( j F L U Y W E j ) xXT./ M.N."
};
